CubeSixel.ufo
<glyph name="exclam" format="1">
  <advance width="250"/>
  <unicode hex="0021"/>
  <outline>
    <contour>
      <point x="0" y="250" type="line" smooth="no"/>
      <point x="125" y="250" type="line" smooth="no"/>
      <point x="125" y="875" type="line" smooth="no"/>
      <point x="0" y="875" type="line" smooth="no"/>
    </contour>
    <contour>
      <point x="0" y="0" type="line" smooth="no"/>
      <point x="125" y="0" type="line" smooth="no"/>
      <point x="125" y="125" type="line" smooth="no"/>
      <point x="0" y="125" type="line" smooth="no"/>
    </contour>
  </outline>
</glyph>
<glyph name="quotedbl" format="1">
  <advance width="500"/>
  <unicode hex="0022"/>
  <outline>
    <contour>
      <point x="0" y="625" type="line" smooth="no"/>
      <point x="10" y="625" type="line" smooth="no"/>
      <point x="20" y="625" type="line" smooth="no"/>
      <point x="30" y="625" type="line" smooth="no"/>
      <point x="40" y="625" type="line" smooth="no"/>
      <point x="83" y="625" type="line" smooth="no"/>
      <point x="103" y="625" type="line" smooth="no"/>
      <point x="120" y="625" type="line" smooth="no"/>
      <point x="125" y="631"/>
      <point x="126" y="638" type="qcurve" smooth="no"/>
      <point x="126" y="680" type="line" smooth="no"/>
      <point x="126" y="690" type="line" smooth="no"/>
      <point x="126" y="700" type="line" smooth="no"/>
      <point x="126" y="708" type="line" smooth="no"/>
      <point x="126" y="752" type="line" smooth="no"/>
      <point x="126" y="785" type="line" smooth="no"/>
      <point x="126" y="795" type="line" smooth="no"/>
      <point x="126" y="838" type="line" smooth="no"/>
      <point x="126" y="845" type="line" smooth="no"/>
      <point x="126" y="875" type="line" smooth="no"/>
      <point x="116" y="875" type="line" smooth="no"/>
      <point x="88" y="875" type="line" smooth="no"/>
      <point x="76" y="875" type="line" smooth="no"/>
      <point x="68" y="875" type="line" smooth="no"/>
      <point x="58" y="875" type="line" smooth="no"/>
      <point x="50" y="875" type="line" smooth="no"/>
      <point x="0" y="875" type="line" smooth="no"/>
    </contour>
    <contour>
      <point x="250" y="625" type="line" smooth="no"/>
      <point x="260" y="625" type="line" smooth="no"/>
      <point x="270" y="625" type="line" smooth="no"/>
      <point x="280" y="625" type="line" smooth="no"/>
      <point x="290" y="625" type="line" smooth="no"/>
      <point x="333" y="625" type="line" smooth="no"/>
      <point x="353" y="625" type="line" smooth="no"/>
      <point x="370" y="625" type="line" smooth="no"/>
      <point x="375" y="631"/>
      <point x="376" y="638" type="qcurve" smooth="no"/>
      <point x="376" y="680" type="line" smooth="no"/>
      <point x="376" y="690" type="line" smooth="no"/>
      <point x="376" y="700" type="line" smooth="no"/>
      <point x="376" y="708" type="line" smooth="no"/>
      <point x="376" y="752" type="line" smooth="no"/>
      <point x="376" y="785" type="line" smooth="no"/>
      <point x="376" y="795" type="line" smooth="no"/>
      <point x="376" y="838" type="line" smooth="no"/>
      <point x="376" y="845" type="line" smooth="no"/>
      <point x="376" y="875" type="line" smooth="no"/>
      <point x="366" y="875" type="line" smooth="no"/>
      <point x="338" y="875" type="line" smooth="no"/>
      <point x="326" y="875" type="line" smooth="no"/>
      <point x="318" y="875" type="line" smooth="no"/>
      <point x="308" y="875" type="line" smooth="no"/>
      <point x="300" y="875" type="line" smooth="no"/>
      <point x="250" y="875" type="line" smooth="no"/>
    </contour>
  </outline>
</glyph>
<glyph name="numbersign" format="1">
  <advance width="750"/>
  <unicode hex="0023"/>
  <outline>
    <contour>
      <point x="126" y="626" type="line" smooth="no"/>
      <point x="116" y="626" type="line" smooth="no"/>
      <point x="88" y="626" type="line" smooth="no"/>
      <point x="76" y="626" type="line" smooth="no"/>
      <point x="68" y="626" type="line" smooth="no"/>
      <point x="58" y="626" type="line" smooth="no"/>
      <point x="50" y="626" type="line" smooth="no"/>
      <point x="0" y="626" type="line" smooth="no"/>
      <point x="0" y="500" type="line" smooth="no"/>
      <point x="10" y="500" type="line" smooth="no"/>
      <point x="38" y="500" type="line" smooth="no"/>
      <point x="50" y="500" type="line" smooth="no"/>
      <point x="58" y="500" type="line" smooth="no"/>
      <point x="68" y="500" type="line" smooth="no"/>
      <point x="76" y="500" type="line" smooth="no"/>
      <point x="126" y="500" type="line" smooth="no"/>
      <point x="126" y="376" type="line" smooth="no"/>
      <point x="116" y="376" type="line" smooth="no"/>
      <point x="88" y="376" type="line" smooth="no"/>
      <point x="76" y="376" type="line" smooth="no"/>
      <point x="68" y="376" type="line" smooth="no"/>
      <point x="58" y="376" type="line" smooth="no"/>
      <point x="50" y="376" type="line" smooth="no"/>
      <point x="0" y="376" type="line" smooth="no"/>
      <point x="0" y="250" type="line" smooth="no"/>
      <point x="33" y="250" type="line" smooth="no"/>
      <point x="43" y="250" type="line" smooth="no"/>
      <point x="86" y="250" type="line" smooth="no"/>
      <point x="106" y="250" type="line" smooth="no"/>
      <point x="123" y="250" type="line" smooth="no"/>
      <point x="126" y="247"/>
      <point x="126" y="243" type="qcurve" smooth="yes"/>
      <point x="126" y="126" type="line" smooth="no"/>
      <point x="136" y="126" type="line" smooth="no"/>
      <point x="143" y="126" type="line" smooth="no"/>
      <point x="156" y="126" type="line" smooth="no"/>
      <point x="163" y="126" type="line" smooth="no"/>
      <point x="173" y="126" type="line" smooth="no"/>
      <point x="180" y="126" type="line" smooth="no"/>
      <point x="230" y="126" type="line" smooth="no"/>
      <point x="250" y="126" type="line" smooth="no"/>
      <point x="250" y="136" type="line" smooth="no"/>
      <point x="250" y="163" type="line" smooth="no"/>
      <point x="250" y="176" type="line" smooth="no"/>
      <point x="250" y="183" type="line" smooth="no"/>
      <point x="250" y="193" type="line" smooth="no"/>
      <point x="250" y="200" type="line" smooth="no"/>
      <point x="250" y="250" type="line" smooth="no"/>
      <point x="260" y="250" type="line" smooth="no"/>
      <point x="288" y="250" type="line" smooth="no"/>
      <point x="300" y="250" type="line" smooth="no"/>
      <point x="308" y="250" type="line" smooth="no"/>
      <point x="318" y="250" type="line" smooth="no"/>
      <point x="326" y="250" type="line" smooth="no"/>
      <point x="376" y="250" type="line" smooth="no"/>
      <point x="376" y="126" type="line" smooth="no"/>
      <point x="386" y="126" type="line" smooth="no"/>
      <point x="393" y="126" type="line" smooth="no"/>
      <point x="406" y="126" type="line" smooth="no"/>
      <point x="413" y="126" type="line" smooth="no"/>
      <point x="423" y="126" type="line" smooth="no"/>
      <point x="430" y="126" type="line" smooth="no"/>
      <point x="480" y="126" type="line" smooth="no"/>
      <point x="500" y="126" type="line" smooth="no"/>
      <point x="500" y="136" type="line" smooth="no"/>
      <point x="500" y="163" type="line" smooth="no"/>
      <point x="500" y="176" type="line" smooth="no"/>
      <point x="500" y="183" type="line" smooth="no"/>
      <point x="500" y="193" type="line" smooth="no"/>
      <point x="500" y="200" type="line" smooth="no"/>
      <point x="500" y="250" type="line" smooth="no"/>
      <point x="510" y="250" type="line" smooth="no"/>
      <point x="538" y="250" type="line" smooth="no"/>
      <point x="550" y="250" type="line" smooth="no"/>
      <point x="558" y="250" type="line" smooth="no"/>
      <point x="568" y="250" type="line" smooth="no"/>
      <point x="576" y="250" type="line" smooth="no"/>
      <point x="626" y="250" type="line" smooth="no"/>
      <point x="626" y="260" type="line" smooth="no"/>
      <point x="626" y="288" type="line" smooth="no"/>
      <point x="626" y="300" type="line" smooth="no"/>
      <point x="626" y="308" type="line" smooth="no"/>
      <point x="626" y="318" type="line" smooth="no"/>
      <point x="626" y="326" type="line" smooth="no"/>
      <point x="626" y="376" type="line" smooth="no"/>
      <point x="616" y="376" type="line" smooth="no"/>
      <point x="588" y="376" type="line" smooth="no"/>
      <point x="576" y="376" type="line" smooth="no"/>
      <point x="568" y="376" type="line" smooth="no"/>
      <point x="558" y="376" type="line" smooth="no"/>
      <point x="550" y="376" type="line" smooth="no"/>
      <point x="500" y="376" type="line" smooth="no"/>
      <point x="500" y="386" type="line" smooth="no"/>
      <point x="500" y="413" type="line" smooth="no"/>
      <point x="500" y="426" type="line" smooth="no"/>
      <point x="500" y="433" type="line" smooth="no"/>
      <point x="500" y="443" type="line" smooth="no"/>
      <point x="500" y="450" type="line" smooth="no"/>
      <point x="500" y="500" type="line" smooth="no"/>
      <point x="510" y="500" type="line" smooth="no"/>
      <point x="538" y="500" type="line" smooth="no"/>
      <point x="550" y="500" type="line" smooth="no"/>
      <point x="558" y="500" type="line" smooth="no"/>
      <point x="568" y="500" type="line" smooth="no"/>
      <point x="576" y="500" type="line" smooth="no"/>
      <point x="626" y="500" type="line" smooth="no"/>
      <point x="626" y="510" type="line" smooth="no"/>
      <point x="626" y="538" type="line" smooth="no"/>
      <point x="626" y="550" type="line" smooth="no"/>
      <point x="626" y="558" type="line" smooth="no"/>
      <point x="626" y="568" type="line" smooth="no"/>
      <point x="626" y="576" type="line" smooth="no"/>
      <point x="626" y="626" type="line" smooth="no"/>
      <point x="616" y="626" type="line" smooth="no"/>
      <point x="588" y="626" type="line" smooth="no"/>
      <point x="576" y="626" type="line" smooth="no"/>
      <point x="568" y="626" type="line" smooth="no"/>
      <point x="558" y="626" type="line" smooth="no"/>
      <point x="550" y="626" type="line" smooth="no"/>
      <point x="500" y="626" type="line" smooth="no"/>
      <point x="500" y="636" type="line" smooth="no"/>
      <point x="500" y="663" type="line" smooth="no"/>
      <point x="500" y="676" type="line" smooth="no"/>
      <point x="500" y="683" type="line" smooth="no"/>
      <point x="500" y="693" type="line" smooth="no"/>
      <point x="500" y="700" type="line" smooth="no"/>
      <point x="500" y="750" type="line" smooth="no"/>
      <point x="490" y="750" type="line" smooth="no"/>
      <point x="463" y="750" type="line" smooth="no"/>
      <point x="450" y="750" type="line" smooth="no"/>
      <point x="443" y="750" type="line" smooth="no"/>
      <point x="433" y="750" type="line" smooth="no"/>
      <point x="426" y="750" type="line" smooth="no"/>
      <point x="376" y="750" type="line" smooth="no"/>
      <point x="376" y="626" type="line" smooth="no"/>
      <point x="366" y="626" type="line" smooth="no"/>
      <point x="338" y="626" type="line" smooth="no"/>
      <point x="326" y="626" type="line" smooth="no"/>
      <point x="318" y="626" type="line" smooth="no"/>
      <point x="308" y="626" type="line" smooth="no"/>
      <point x="300" y="626" type="line" smooth="no"/>
      <point x="250" y="626" type="line" smooth="no"/>
      <point x="250" y="636" type="line" smooth="no"/>
      <point x="250" y="663" type="line" smooth="no"/>
      <point x="250" y="676" type="line" smooth="no"/>
      <point x="250" y="683" type="line" smooth="no"/>
      <point x="250" y="693" type="line" smooth="no"/>
      <point x="250" y="700" type="line" smooth="no"/>
      <point x="250" y="750" type="line" smooth="no"/>
      <point x="240" y="750" type="line" smooth="no"/>
      <point x="213" y="750" type="line" smooth="no"/>
      <point x="200" y="750" type="line" smooth="no"/>
      <point x="193" y="750" type="line" smooth="no"/>
      <point x="183" y="750" type="line" smooth="no"/>
      <point x="176" y="750" type="line" smooth="no"/>
      <point x="126" y="750" type="line" smooth="no"/>
    </contour>
    <contour>
      <point x="260" y="500" type="line" smooth="no"/>
      <point x="288" y="500" type="line" smooth="no"/>
      <point x="300" y="500" type="line" smooth="no"/>
      <point x="308" y="500" type="line" smooth="no"/>
      <point x="318" y="500" type="line" smooth="no"/>
      <point x="326" y="500" type="line" smooth="no"/>
      <point x="376" y="500" type="line" smooth="no"/>
      <point x="376" y="376" type="line" smooth="no"/>
      <point x="350" y="376" type="line" smooth="no"/>
      <point x="340" y="376" type="line" smooth="no"/>
      <point x="330" y="376" type="line" smooth="no"/>
      <point x="323" y="376" type="line" smooth="no"/>
      <point x="313" y="376" type="line" smooth="no"/>
      <point x="268" y="376" type="line" smooth="no"/>
      <point x="250" y="376" type="line" smooth="no"/>
      <point x="250" y="386" type="line" smooth="no"/>
      <point x="250" y="413" type="line" smooth="no"/>
      <point x="250" y="426" type="line" smooth="no"/>
      <point x="250" y="433" type="line" smooth="no"/>
      <point x="250" y="443" type="line" smooth="no"/>
      <point x="250" y="450" type="line" smooth="no"/>
      <point x="250" y="500" type="line" smooth="no"/>
    </contour>
  </outline>
</glyph>
<glyph name="dollar" format="1">
  <advance width="750"/>
  <unicode hex="0024"/>
  <outline>
    <contour>
      <point x="250" y="750" type="line" smooth="no"/>
      <point x="125" y="750" type="line" smooth="no"/>
      <point x="125" y="626" type="line" smooth="no"/>
      <point x="0" y="626" type="line" smooth="no"/>
      <point x="0" y="499" type="line" smooth="no"/>
      <point x="125" y="499" type="line" smooth="no"/>
      <point x="125" y="375" type="line" smooth="no"/>
      <point x="250" y="375" type="line" smooth="no"/>
      <point x="250" y="250" type="line" smooth="no"/>
      <point x="125" y="250" type="line" smooth="no"/>
      <point x="125" y="125" type="line" smooth="no"/>
      <point x="250" y="125" type="line" smooth="no"/>
      <point x="250" y="0" type="line" smooth="no"/>
      <point x="375" y="0" type="line" smooth="no"/>
      <point x="375" y="125" type="line" smooth="no"/>
      <point x="500" y="125" type="line" smooth="no"/>
      <point x="500" y="249" type="line" smooth="no"/>
      <point x="625" y="249" type="line" smooth="no"/>
      <point x="625" y="376" type="line" smooth="no"/>
      <point x="500" y="376" type="line" smooth="no"/>
      <point x="500" y="500" type="line" smooth="no"/>
      <point x="375" y="500" type="line" smooth="no"/>
      <point x="375" y="625" type="line" smooth="no"/>
      <point x="500" y="625" type="line" smooth="no"/>
      <point x="500" y="750" type="line" smooth="no"/>
      <point x="375" y="750" type="line" smooth="no"/>
      <point x="375" y="875" type="line" smooth="no"/>
      <point x="250" y="875" type="line" smooth="no"/>
    </contour>
    <contour>
      <point x="125" y="625" type="line" smooth="no"/>
      <point x="250" y="625" type="line" smooth="no"/>
      <point x="250" y="500" type="line" smooth="no"/>
      <point x="125" y="500" type="line" smooth="no"/>
      <point x="125" y="625" type="line" smooth="no"/>
      <point x="125" y="625" type="line" smooth="no"/>
      <point x="125" y="625" type="line" smooth="no"/>
    </contour>
    <contour>
      <point x="500" y="375" type="line" smooth="no"/>
      <point x="500" y="250" type="line" smooth="no"/>
      <point x="375" y="250" type="line" smooth="no"/>
      <point x="375" y="375" type="line" smooth="no"/>
    </contour>
  </outline>
</glyph>
<glyph name="percent" format="1">
  <advance width="1000"/>
  <unicode hex="0025"/>
  <outline>
    <contour>
      <point x="126" y="750" type="line" smooth="no"/>
      <point x="116" y="750" type="line" smooth="no"/>
      <point x="88" y="750" type="line" smooth="no"/>
      <point x="76" y="750" type="line" smooth="no"/>
      <point x="68" y="750" type="line" smooth="no"/>
      <point x="58" y="750" type="line" smooth="no"/>
      <point x="50" y="750" type="line" smooth="no"/>
      <point x="0" y="750" type="line" smooth="no"/>
      <point x="0" y="626" type="line" smooth="no"/>
      <point x="10" y="626" type="line" smooth="no"/>
      <point x="38" y="626" type="line" smooth="no"/>
      <point x="50" y="626" type="line" smooth="no"/>
      <point x="58" y="626" type="line" smooth="no"/>
      <point x="68" y="626" type="line" smooth="no"/>
      <point x="76" y="626" type="line" smooth="no"/>
      <point x="126" y="626" type="line" smooth="no"/>
      <point x="126" y="500" type="line" smooth="no"/>
      <point x="133" y="500" type="line" smooth="no"/>
      <point x="183" y="500" type="line" smooth="no"/>
      <point x="193" y="500" type="line" smooth="no"/>
      <point x="200" y="500" type="line" smooth="no"/>
      <point x="250" y="500" type="line" smooth="no"/>
      <point x="250" y="510" type="line" smooth="no"/>
      <point x="250" y="538" type="line" smooth="no"/>
      <point x="250" y="550" type="line" smooth="no"/>
      <point x="250" y="558" type="line" smooth="no"/>
      <point x="250" y="568" type="line" smooth="no"/>
      <point x="250" y="576" type="line" smooth="no"/>
      <point x="250" y="626" type="line" smooth="no"/>
      <point x="260" y="626" type="line" smooth="no"/>
      <point x="288" y="626" type="line" smooth="no"/>
      <point x="300" y="626" type="line" smooth="no"/>
      <point x="308" y="626" type="line" smooth="no"/>
      <point x="318" y="626" type="line" smooth="no"/>
      <point x="326" y="626" type="line" smooth="no"/>
      <point x="376" y="626" type="line" smooth="no"/>
      <point x="376" y="636" type="line" smooth="no"/>
      <point x="376" y="663" type="line" smooth="no"/>
      <point x="376" y="676" type="line" smooth="no"/>
      <point x="376" y="683" type="line" smooth="no"/>
      <point x="376" y="693" type="line" smooth="no"/>
      <point x="376" y="700" type="line" smooth="no"/>
      <point x="376" y="750" type="line" smooth="no"/>
      <point x="366" y="750" type="line" smooth="no"/>
      <point x="338" y="750" type="line" smooth="no"/>
      <point x="326" y="750" type="line" smooth="no"/>
      <point x="318" y="750" type="line" smooth="no"/>
      <point x="308" y="750" type="line" smooth="no"/>
      <point x="300" y="750" type="line" smooth="no"/>
      <point x="250" y="750" type="line" smooth="no"/>
      <point x="250" y="760" type="line" smooth="no"/>
      <point x="250" y="788" type="line" smooth="no"/>
      <point x="250" y="800" type="line" smooth="no"/>
      <point x="250" y="808" type="line" smooth="no"/>
      <point x="250" y="818" type="line" smooth="no"/>
      <point x="250" y="826" type="line" smooth="no"/>
      <point x="250" y="876" type="line" smooth="no"/>
      <point x="240" y="876" type="line" smooth="no"/>
      <point x="213" y="876" type="line" smooth="no"/>
      <point x="200" y="876" type="line" smooth="no"/>
      <point x="193" y="876" type="line" smooth="no"/>
      <point x="183" y="876" type="line" smooth="no"/>
      <point x="176" y="876" type="line" smooth="no"/>
      <point x="126" y="876" type="line" smooth="no"/>
    </contour>
    <contour>
      <point x="626" y="626" type="line" smooth="no"/>
      <point x="616" y="626" type="line" smooth="no"/>
      <point x="588" y="626" type="line" smooth="no"/>
      <point x="576" y="626" type="line" smooth="no"/>
      <point x="568" y="626" type="line" smooth="no"/>
      <point x="558" y="626" type="line" smooth="no"/>
      <point x="550" y="626" type="line" smooth="no"/>
      <point x="500" y="626" type="line" smooth="no"/>
      <point x="500" y="500" type="line" smooth="no"/>
      <point x="490" y="500" type="line" smooth="no"/>
      <point x="463" y="500" type="line" smooth="no"/>
      <point x="450" y="500" type="line" smooth="no"/>
      <point x="443" y="500" type="line" smooth="no"/>
      <point x="433" y="500" type="line" smooth="no"/>
      <point x="426" y="500" type="line" smooth="no"/>
      <point x="376" y="500" type="line" smooth="no"/>
      <point x="376" y="376" type="line" smooth="no"/>
      <point x="366" y="376" type="line" smooth="no"/>
      <point x="338" y="376" type="line" smooth="no"/>
      <point x="326" y="376" type="line" smooth="no"/>
      <point x="318" y="376" type="line" smooth="no"/>
      <point x="308" y="376" type="line" smooth="no"/>
      <point x="300" y="376" type="line" smooth="no"/>
      <point x="250" y="376" type="line" smooth="no"/>
      <point x="250" y="250" type="line" smooth="no"/>
      <point x="240" y="250" type="line" smooth="no"/>
      <point x="213" y="250" type="line" smooth="no"/>
      <point x="200" y="250" type="line" smooth="no"/>
      <point x="193" y="250" type="line" smooth="no"/>
      <point x="183" y="250" type="line" smooth="no"/>
      <point x="176" y="250" type="line" smooth="no"/>
      <point x="126" y="250" type="line" smooth="no"/>
      <point x="126" y="0" type="line" smooth="no"/>
      <point x="136" y="0" type="line" smooth="no"/>
      <point x="163" y="0" type="line" smooth="no"/>
      <point x="176" y="0" type="line" smooth="no"/>
      <point x="183" y="0" type="line" smooth="no"/>
      <point x="193" y="0" type="line" smooth="no"/>
      <point x="200" y="0" type="line" smooth="no"/>
      <point x="250" y="0" type="line" smooth="no"/>
      <point x="250" y="16" type="line" smooth="no"/>
      <point x="250" y="48" type="line" smooth="no"/>
      <point x="250" y="56" type="line" smooth="no"/>
      <point x="250" y="63" type="line" smooth="no"/>
      <point x="250" y="70" type="line" smooth="no"/>
      <point x="250" y="103" type="line" smooth="no"/>
      <point x="250" y="130" type="line" smooth="no"/>
      <point x="250" y="140" type="line" smooth="no"/>
      <point x="250" y="150" type="line" smooth="no"/>
      <point x="250" y="160" type="line" smooth="no"/>
      <point x="250" y="173" type="line" smooth="no"/>
      <point x="250" y="250" type="line" smooth="no"/>
      <point x="260" y="250" type="line" smooth="no"/>
      <point x="288" y="250" type="line" smooth="no"/>
      <point x="300" y="250" type="line" smooth="no"/>
      <point x="308" y="250" type="line" smooth="no"/>
      <point x="318" y="250" type="line" smooth="no"/>
      <point x="326" y="250" type="line" smooth="no"/>
      <point x="376" y="250" type="line" smooth="no"/>
      <point x="376" y="260" type="line" smooth="no"/>
      <point x="376" y="288" type="line" smooth="no"/>
      <point x="376" y="300" type="line" smooth="no"/>
      <point x="376" y="308" type="line" smooth="no"/>
      <point x="376" y="318" type="line" smooth="no"/>
      <point x="376" y="326" type="line" smooth="no"/>
      <point x="376" y="376" type="line" smooth="no"/>
      <point x="386" y="376" type="line" smooth="no"/>
      <point x="413" y="376" type="line" smooth="no"/>
      <point x="426" y="376" type="line" smooth="no"/>
      <point x="433" y="376" type="line" smooth="no"/>
      <point x="443" y="376" type="line" smooth="no"/>
      <point x="450" y="376" type="line" smooth="no"/>
      <point x="500" y="376" type="line" smooth="no"/>
      <point x="500" y="386" type="line" smooth="no"/>
      <point x="500" y="413" type="line" smooth="no"/>
      <point x="500" y="426" type="line" smooth="no"/>
      <point x="500" y="433" type="line" smooth="no"/>
      <point x="500" y="443" type="line" smooth="no"/>
      <point x="500" y="450" type="line" smooth="no"/>
      <point x="500" y="500" type="line" smooth="no"/>
      <point x="510" y="500" type="line" smooth="no"/>
      <point x="538" y="500" type="line" smooth="no"/>
      <point x="550" y="500" type="line" smooth="no"/>
      <point x="558" y="500" type="line" smooth="no"/>
      <point x="568" y="500" type="line" smooth="no"/>
      <point x="576" y="500" type="line" smooth="no"/>
      <point x="626" y="500" type="line" smooth="no"/>
      <point x="626" y="510" type="line" smooth="no"/>
      <point x="626" y="538" type="line" smooth="no"/>
      <point x="626" y="550" type="line" smooth="no"/>
      <point x="626" y="558" type="line" smooth="no"/>
      <point x="626" y="568" type="line" smooth="no"/>
      <point x="626" y="576" type="line" smooth="no"/>
      <point x="626" y="626" type="line" smooth="no"/>
      <point x="636" y="626" type="line" smooth="no"/>
      <point x="663" y="626" type="line" smooth="no"/>
      <point x="676" y="626" type="line" smooth="no"/>
      <point x="683" y="626" type="line" smooth="no"/>
      <point x="693" y="626" type="line" smooth="no"/>
      <point x="700" y="626" type="line" smooth="no"/>
      <point x="750" y="626" type="line" smooth="no"/>
      <point x="750" y="640" type="line" smooth="no"/>
      <point x="750" y="673" type="line" smooth="no"/>
      <point x="750" y="680" type="line" smooth="no"/>
      <point x="750" y="688" type="line" smooth="no"/>
      <point x="750" y="696" type="line" smooth="no"/>
      <point x="750" y="728" type="line" smooth="no"/>
      <point x="750" y="756" type="line" smooth="no"/>
      <point x="750" y="766" type="line" smooth="no"/>
      <point x="750" y="776" type="line" smooth="no"/>
      <point x="750" y="786" type="line" smooth="no"/>
      <point x="750" y="798" type="line" smooth="no"/>
      <point x="750" y="876" type="line" smooth="no"/>
      <point x="740" y="876" type="line" smooth="no"/>
      <point x="713" y="876" type="line" smooth="no"/>
      <point x="700" y="876" type="line" smooth="no"/>
      <point x="693" y="876" type="line" smooth="no"/>
      <point x="683" y="876" type="line" smooth="no"/>
      <point x="676" y="876" type="line" smooth="no"/>
      <point x="626" y="876" type="line" smooth="no"/>
    </contour>
    <contour>
      <point x="128" y="750" type="line" smooth="no"/>
      <point x="160" y="750" type="line" smooth="no"/>
      <point x="173" y="750" type="line" smooth="no"/>
      <point x="250" y="750" type="line" smooth="no"/>
      <point x="250" y="626" type="line" smooth="no"/>
      <point x="240" y="626" type="line" smooth="no"/>
      <point x="213" y="626" type="line" smooth="no"/>
      <point x="200" y="626" type="line" smooth="no"/>
      <point x="193" y="626" type="line" smooth="no"/>
      <point x="183" y="626" type="line" smooth="no"/>
      <point x="176" y="626" type="line" smooth="no"/>
      <point x="126" y="626" type="line" smooth="no"/>
      <point x="126" y="636" type="line" smooth="no"/>
      <point x="126" y="663" type="line" smooth="no"/>
      <point x="126" y="676" type="line" smooth="no"/>
      <point x="126" y="683" type="line" smooth="no"/>
      <point x="126" y="693" type="line" smooth="no"/>
      <point x="126" y="700" type="line" smooth="no"/>
      <point x="126" y="750" type="line" smooth="no"/>
      <point x="128" y="750" type="line" smooth="no"/>
      <point x="126" y="750" type="line" smooth="no"/>
    </contour>
    <contour>
      <point x="626" y="250" type="line" smooth="no"/>
      <point x="616" y="250" type="line" smooth="no"/>
      <point x="588" y="250" type="line" smooth="no"/>
      <point x="576" y="250" type="line" smooth="no"/>
      <point x="568" y="250" type="line" smooth="no"/>
      <point x="558" y="250" type="line" smooth="no"/>
      <point x="550" y="250" type="line" smooth="no"/>
      <point x="500" y="250" type="line" smooth="no"/>
      <point x="500" y="126" type="line" smooth="no"/>
      <point x="510" y="126" type="line" smooth="no"/>
      <point x="538" y="126" type="line" smooth="no"/>
      <point x="550" y="126" type="line" smooth="no"/>
      <point x="558" y="126" type="line" smooth="no"/>
      <point x="568" y="126" type="line" smooth="no"/>
      <point x="576" y="126" type="line" smooth="no"/>
      <point x="626" y="126" type="line" smooth="no"/>
      <point x="626" y="0" type="line" smooth="no"/>
      <point x="633" y="0" type="line" smooth="no"/>
      <point x="683" y="0" type="line" smooth="no"/>
      <point x="693" y="0" type="line" smooth="no"/>
      <point x="700" y="0" type="line" smooth="no"/>
      <point x="750" y="0" type="line" smooth="no"/>
      <point x="750" y="10" type="line" smooth="no"/>
      <point x="750" y="38" type="line" smooth="no"/>
      <point x="750" y="50" type="line" smooth="no"/>
      <point x="750" y="58" type="line" smooth="no"/>
      <point x="750" y="68" type="line" smooth="no"/>
      <point x="750" y="76" type="line" smooth="no"/>
      <point x="750" y="126" type="line" smooth="no"/>
      <point x="760" y="126" type="line" smooth="no"/>
      <point x="788" y="126" type="line" smooth="no"/>
      <point x="800" y="126" type="line" smooth="no"/>
      <point x="808" y="126" type="line" smooth="no"/>
      <point x="818" y="126" type="line" smooth="no"/>
      <point x="826" y="126" type="line" smooth="no"/>
      <point x="876" y="126" type="line" smooth="no"/>
      <point x="876" y="136" type="line" smooth="no"/>
      <point x="876" y="163" type="line" smooth="no"/>
      <point x="876" y="176" type="line" smooth="no"/>
      <point x="876" y="183" type="line" smooth="no"/>
      <point x="876" y="193" type="line" smooth="no"/>
      <point x="876" y="200" type="line" smooth="no"/>
      <point x="876" y="250" type="line" smooth="no"/>
      <point x="866" y="250" type="line" smooth="no"/>
      <point x="838" y="250" type="line" smooth="no"/>
      <point x="826" y="250" type="line" smooth="no"/>
      <point x="818" y="250" type="line" smooth="no"/>
      <point x="808" y="250" type="line" smooth="no"/>
      <point x="800" y="250" type="line" smooth="no"/>
      <point x="750" y="250" type="line" smooth="no"/>
      <point x="750" y="260" type="line" smooth="no"/>
      <point x="750" y="288" type="line" smooth="no"/>
      <point x="750" y="300" type="line" smooth="no"/>
      <point x="750" y="308" type="line" smooth="no"/>
      <point x="750" y="318" type="line" smooth="no"/>
      <point x="750" y="326" type="line" smooth="no"/>
      <point x="750" y="376" type="line" smooth="no"/>
      <point x="740" y="376" type="line" smooth="no"/>
      <point x="713" y="376" type="line" smooth="no"/>
      <point x="700" y="376" type="line" smooth="no"/>
      <point x="693" y="376" type="line" smooth="no"/>
      <point x="683" y="376" type="line" smooth="no"/>
      <point x="676" y="376" type="line" smooth="no"/>
      <point x="626" y="376" type="line" smooth="no"/>
    </contour>
    <contour>
      <point x="660" y="250" type="line" smooth="no"/>
      <point x="673" y="250" type="line" smooth="no"/>
      <point x="750" y="250" type="line" smooth="no"/>
      <point x="750" y="126" type="line" smooth="no"/>
      <point x="740" y="126" type="line" smooth="no"/>
      <point x="713" y="126" type="line" smooth="no"/>
      <point x="700" y="126" type="line" smooth="no"/>
      <point x="693" y="126" type="line" smooth="no"/>
      <point x="683" y="126" type="line" smooth="no"/>
      <point x="676" y="126" type="line" smooth="no"/>
      <point x="626" y="126" type="line" smooth="no"/>
      <point x="626" y="168" type="line" smooth="no"/>
      <point x="626" y="188" type="line" smooth="no"/>
      <point x="624" y="226"/>
      <point x="628" y="250" type="qcurve" smooth="no"/>
    </contour>
  </outline>
</glyph>
<glyph name="ampersand" format="1">
  <advance width="875"/>
  <unicode hex="0026"/>
  <outline>
    <contour>
      <point x="249" y="750" type="line" smooth="no"/>
      <point x="239" y="750" type="line" smooth="no"/>
      <point x="212" y="750" type="line" smooth="no"/>
      <point x="199" y="750" type="line" smooth="no"/>
      <point x="192" y="750" type="line" smooth="no"/>
      <point x="182" y="750" type="line" smooth="no"/>
      <point x="174" y="750" type="line" smooth="no"/>
      <point x="124" y="750" type="line" smooth="no"/>
      <point x="124" y="626" type="line" smooth="no"/>
      <point x="134" y="626" type="line" smooth="no"/>
      <point x="162" y="626" type="line" smooth="no"/>
      <point x="174" y="626" type="line" smooth="no"/>
      <point x="182" y="626" type="line" smooth="no"/>
      <point x="192" y="626" type="line" smooth="no"/>
      <point x="199" y="626" type="line" smooth="no"/>
      <point x="249" y="626" type="line" smooth="no"/>
      <point x="249" y="500" type="line" smooth="no"/>
      <point x="239" y="500" type="line" smooth="no"/>
      <point x="212" y="500" type="line" smooth="no"/>
      <point x="199" y="500" type="line" smooth="no"/>
      <point x="192" y="500" type="line" smooth="no"/>
      <point x="182" y="500" type="line" smooth="no"/>
      <point x="174" y="500" type="line" smooth="no"/>
      <point x="124" y="500" type="line" smooth="no"/>
      <point x="124" y="376" type="line" smooth="no"/>
      <point x="114" y="376" type="line" smooth="no"/>
      <point x="87" y="376" type="line" smooth="no"/>
      <point x="74" y="376" type="line" smooth="no"/>
      <point x="66" y="376" type="line" smooth="no"/>
      <point x="57" y="376" type="line" smooth="no"/>
      <point x="49" y="376" type="line" smooth="no"/>
      <point x="-1" y="376" type="line" smooth="no"/>
      <point x="-1" y="126" type="line" smooth="no"/>
      <point x="9" y="126" type="line" smooth="no"/>
      <point x="37" y="126" type="line" smooth="no"/>
      <point x="49" y="126" type="line" smooth="no"/>
      <point x="57" y="126" type="line" smooth="no"/>
      <point x="66" y="126" type="line" smooth="no"/>
      <point x="74" y="126" type="line" smooth="no"/>
      <point x="124" y="126" type="line" smooth="no"/>
      <point x="124" y="0" type="line" smooth="no"/>
      <point x="142" y="0" type="line" smooth="no"/>
      <point x="159" y="0" type="line" smooth="no"/>
      <point x="169" y="0" type="line" smooth="no"/>
      <point x="182" y="0" type="line" smooth="no"/>
      <point x="214" y="0" type="line" smooth="no"/>
      <point x="227" y="0" type="line" smooth="no"/>
      <point x="304" y="0" type="line" smooth="no"/>
      <point x="314" y="0" type="line" smooth="no"/>
      <point x="324" y="0" type="line" smooth="no"/>
      <point x="331" y="0" type="line" smooth="no"/>
      <point x="376" y="0" type="line" smooth="no"/>
      <point x="409" y="0" type="line" smooth="no"/>
      <point x="421" y="0" type="line" smooth="no"/>
      <point x="499" y="0" type="line" smooth="no"/>
      <point x="499" y="10" type="line" smooth="no"/>
      <point x="499" y="38" type="line" smooth="no"/>
      <point x="499" y="50" type="line" smooth="no"/>
      <point x="499" y="58" type="line" smooth="no"/>
      <point x="499" y="68" type="line" smooth="no"/>
      <point x="499" y="76" type="line" smooth="no"/>
      <point x="499" y="126" type="line" smooth="no"/>
      <point x="509" y="126" type="line" smooth="no"/>
      <point x="536" y="126" type="line" smooth="no"/>
      <point x="549" y="126" type="line" smooth="no"/>
      <point x="556" y="126" type="line" smooth="no"/>
      <point x="566" y="126" type="line" smooth="no"/>
      <point x="574" y="126" type="line" smooth="no"/>
      <point x="624" y="126" type="line" smooth="no"/>
      <point x="624" y="0" type="line" smooth="no"/>
      <point x="634" y="0" type="line" smooth="no"/>
      <point x="662" y="0" type="line" smooth="no"/>
      <point x="674" y="0" type="line" smooth="no"/>
      <point x="682" y="0" type="line" smooth="no"/>
      <point x="692" y="0" type="line" smooth="no"/>
      <point x="699" y="0" type="line" smooth="no"/>
      <point x="749" y="0" type="line" smooth="no"/>
      <point x="749" y="10" type="line" smooth="no"/>
      <point x="749" y="38" type="line" smooth="no"/>
      <point x="749" y="50" type="line" smooth="no"/>
      <point x="749" y="58" type="line" smooth="no"/>
      <point x="749" y="68" type="line" smooth="no"/>
      <point x="749" y="76" type="line" smooth="no"/>
      <point x="749" y="126" type="line" smooth="no"/>
      <point x="739" y="126" type="line" smooth="no"/>
      <point x="712" y="126" type="line" smooth="no"/>
      <point x="699" y="126" type="line" smooth="no"/>
      <point x="692" y="126" type="line" smooth="no"/>
      <point x="682" y="126" type="line" smooth="no"/>
      <point x="674" y="126" type="line" smooth="no"/>
      <point x="624" y="126" type="line" smooth="no"/>
      <point x="624" y="153" type="line" smooth="no"/>
      <point x="624" y="166" type="line" smooth="no"/>
      <point x="624" y="173" type="line" smooth="no"/>
      <point x="624" y="183" type="line" smooth="no"/>
      <point x="624" y="190" type="line" smooth="no"/>
      <point x="624" y="240" type="line" smooth="no"/>
      <point x="624" y="250" type="line" smooth="no"/>
      <point x="634" y="250" type="line" smooth="no"/>
      <point x="662" y="250" type="line" smooth="no"/>
      <point x="674" y="250" type="line" smooth="no"/>
      <point x="682" y="250" type="line" smooth="no"/>
      <point x="692" y="250" type="line" smooth="no"/>
      <point x="699" y="250" type="line" smooth="no"/>
      <point x="749" y="250" type="line" smooth="no"/>
      <point x="749" y="260" type="line" smooth="no"/>
      <point x="749" y="288" type="line" smooth="no"/>
      <point x="749" y="300" type="line" smooth="no"/>
      <point x="749" y="308" type="line" smooth="no"/>
      <point x="749" y="318" type="line" smooth="no"/>
      <point x="749" y="326" type="line" smooth="no"/>
      <point x="749" y="376" type="line" smooth="no"/>
      <point x="739" y="376" type="line" smooth="no"/>
      <point x="712" y="376" type="line" smooth="no"/>
      <point x="699" y="376" type="line" smooth="no"/>
      <point x="692" y="376" type="line" smooth="no"/>
      <point x="682" y="376" type="line" smooth="no"/>
      <point x="674" y="376" type="line" smooth="no"/>
      <point x="624" y="376" type="line" smooth="no"/>
      <point x="624" y="250" type="line" smooth="no"/>
      <point x="596" y="250" type="line" smooth="no"/>
      <point x="584" y="250" type="line" smooth="no"/>
      <point x="576" y="250" type="line" smooth="no"/>
      <point x="566" y="250" type="line" smooth="no"/>
      <point x="559" y="250" type="line" smooth="no"/>
      <point x="509" y="250" type="line" smooth="no"/>
      <point x="499" y="250" type="line" smooth="no"/>
      <point x="499" y="260" type="line" smooth="no"/>
      <point x="499" y="288" type="line" smooth="no"/>
      <point x="499" y="300" type="line" smooth="no"/>
      <point x="499" y="308" type="line" smooth="no"/>
      <point x="499" y="318" type="line" smooth="no"/>
      <point x="499" y="326" type="line" smooth="no"/>
      <point x="499" y="376" type="line" smooth="no"/>
      <point x="489" y="376" type="line" smooth="no"/>
      <point x="462" y="376" type="line" smooth="no"/>
      <point x="449" y="376" type="line" smooth="no"/>
      <point x="442" y="376" type="line" smooth="no"/>
      <point x="432" y="376" type="line" smooth="no"/>
      <point x="424" y="376" type="line" smooth="no"/>
      <point x="374" y="376" type="line" smooth="no"/>
      <point x="374" y="386" type="line" smooth="no"/>
      <point x="374" y="413" type="line" smooth="no"/>
      <point x="374" y="426" type="line" smooth="no"/>
      <point x="374" y="433" type="line" smooth="no"/>
      <point x="374" y="443" type="line" smooth="no"/>
      <point x="374" y="450" type="line" smooth="no"/>
      <point x="374" y="500" type="line" smooth="no"/>
      <point x="384" y="500" type="line" smooth="no"/>
      <point x="412" y="500" type="line" smooth="no"/>
      <point x="424" y="500" type="line" smooth="no"/>
      <point x="432" y="500" type="line" smooth="no"/>
      <point x="442" y="500" type="line" smooth="no"/>
      <point x="449" y="500" type="line" smooth="no"/>
      <point x="499" y="500" type="line" smooth="no"/>
      <point x="499" y="510" type="line" smooth="no"/>
      <point x="499" y="538" type="line" smooth="no"/>
      <point x="499" y="550" type="line" smooth="no"/>
      <point x="499" y="558" type="line" smooth="no"/>
      <point x="499" y="568" type="line" smooth="no"/>
      <point x="499" y="576" type="line" smooth="no"/>
      <point x="499" y="626" type="line" smooth="no"/>
      <point x="509" y="626" type="line" smooth="no"/>
      <point x="536" y="626" type="line" smooth="no"/>
      <point x="549" y="626" type="line" smooth="no"/>
      <point x="556" y="626" type="line" smooth="no"/>
      <point x="566" y="626" type="line" smooth="no"/>
      <point x="574" y="626" type="line" smooth="no"/>
      <point x="624" y="626" type="line" smooth="no"/>
      <point x="624" y="636" type="line" smooth="no"/>
      <point x="624" y="663" type="line" smooth="no"/>
      <point x="624" y="676" type="line" smooth="no"/>
      <point x="624" y="683" type="line" smooth="no"/>
      <point x="624" y="693" type="line" smooth="no"/>
      <point x="624" y="700" type="line" smooth="no"/>
      <point x="624" y="750" type="line" smooth="no"/>
      <point x="614" y="750" type="line" smooth="no"/>
      <point x="586" y="750" type="line" smooth="no"/>
      <point x="574" y="750" type="line" smooth="no"/>
      <point x="566" y="750" type="line" smooth="no"/>
      <point x="556" y="750" type="line" smooth="no"/>
      <point x="549" y="750" type="line" smooth="no"/>
      <point x="499" y="750" type="line" smooth="no"/>
      <point x="499" y="793" type="line" smooth="no"/>
      <point x="499" y="813" type="line" smooth="no"/>
      <point x="501" y="851"/>
      <point x="496" y="876" type="qcurve" smooth="no"/>
      <point x="494" y="876" type="line" smooth="no"/>
      <point x="496" y="876" type="line" smooth="no"/>
      <point x="494" y="876" type="line" smooth="no"/>
      <point x="489" y="876" type="line" smooth="no"/>
      <point x="484" y="876" type="line" smooth="no"/>
      <point x="479" y="876" type="line" smooth="no"/>
      <point x="474" y="876" type="line" smooth="no"/>
      <point x="469" y="876" type="line" smooth="no"/>
      <point x="464" y="876" type="line" smooth="no"/>
      <point x="459" y="876" type="line" smooth="no"/>
      <point x="451" y="876" type="line" smooth="no"/>
      <point x="454" y="876" type="line" smooth="no"/>
      <point x="449" y="876" type="line" smooth="no"/>
      <point x="451" y="876" type="line" smooth="no"/>
      <point x="447" y="876" type="line" smooth="no"/>
      <point x="449" y="876" type="line" smooth="no"/>
      <point x="444" y="876" type="line" smooth="no"/>
      <point x="447" y="876" type="line" smooth="no"/>
      <point x="442" y="876" type="line" smooth="no"/>
      <point x="444" y="876" type="line" smooth="no"/>
      <point x="439" y="876" type="line" smooth="no"/>
      <point x="442" y="876" type="line" smooth="no"/>
      <point x="436" y="876" type="line" smooth="no"/>
      <point x="439" y="876" type="line" smooth="no"/>
      <point x="434" y="876" type="line" smooth="no"/>
      <point x="436" y="876" type="line" smooth="no"/>
      <point x="432" y="876" type="line" smooth="no"/>
      <point x="434" y="876" type="line" smooth="no"/>
      <point x="429" y="876" type="line" smooth="no"/>
      <point x="432" y="876" type="line" smooth="no"/>
      <point x="426" y="876" type="line" smooth="no"/>
      <point x="429" y="876" type="line" smooth="no"/>
      <point x="424" y="876" type="line" smooth="no"/>
      <point x="426" y="876" type="line" smooth="no"/>
      <point x="421" y="876" type="line" smooth="no"/>
      <point x="424" y="876" type="line" smooth="no"/>
      <point x="419" y="876" type="line" smooth="no"/>
      <point x="421" y="876" type="line" smooth="no"/>
      <point x="417" y="876" type="line" smooth="no"/>
      <point x="419" y="876" type="line" smooth="no"/>
      <point x="414" y="876" type="line" smooth="no"/>
      <point x="417" y="876" type="line" smooth="no"/>
      <point x="412" y="876" type="line" smooth="no"/>
      <point x="414" y="876" type="line" smooth="no"/>
      <point x="409" y="876" type="line" smooth="no"/>
      <point x="412" y="876" type="line" smooth="no"/>
      <point x="406" y="876" type="line" smooth="no"/>
      <point x="409" y="876" type="line" smooth="no"/>
      <point x="404" y="876" type="line" smooth="no"/>
      <point x="406" y="876" type="line" smooth="no"/>
      <point x="402" y="876" type="line" smooth="no"/>
      <point x="404" y="876" type="line" smooth="no"/>
      <point x="399" y="876" type="line" smooth="no"/>
      <point x="402" y="876" type="line" smooth="no"/>
      <point x="396" y="876" type="line" smooth="no"/>
      <point x="399" y="876" type="line" smooth="no"/>
      <point x="394" y="876" type="line" smooth="no"/>
      <point x="396" y="876" type="line" smooth="no"/>
      <point x="391" y="876" type="line" smooth="no"/>
      <point x="394" y="876" type="line" smooth="no"/>
      <point x="389" y="876" type="line" smooth="no"/>
      <point x="391" y="876" type="line" smooth="no"/>
      <point x="387" y="876" type="line" smooth="no"/>
      <point x="389" y="876" type="line" smooth="no"/>
      <point x="384" y="876" type="line" smooth="no"/>
      <point x="387" y="876" type="line" smooth="no"/>
      <point x="382" y="876" type="line" smooth="no"/>
      <point x="384" y="876" type="line" smooth="no"/>
      <point x="379" y="876" type="line" smooth="no"/>
      <point x="382" y="876" type="line" smooth="no"/>
      <point x="376" y="876" type="line" smooth="no"/>
      <point x="379" y="876" type="line" smooth="no"/>
      <point x="374" y="876" type="line" smooth="no"/>
      <point x="376" y="876" type="line" smooth="no"/>
      <point x="372" y="876" type="line" smooth="no"/>
      <point x="374" y="876" type="line" smooth="no"/>
      <point x="369" y="876" type="line" smooth="no"/>
      <point x="372" y="876" type="line" smooth="no"/>
      <point x="366" y="876" type="line" smooth="no"/>
      <point x="369" y="876" type="line" smooth="no"/>
      <point x="364" y="876" type="line" smooth="no"/>
      <point x="366" y="876" type="line" smooth="no"/>
      <point x="361" y="876" type="line" smooth="no"/>
      <point x="364" y="876" type="line" smooth="no"/>
      <point x="359" y="876" type="line" smooth="no"/>
      <point x="361" y="876" type="line" smooth="no"/>
      <point x="357" y="876" type="line" smooth="no"/>
      <point x="359" y="876" type="line" smooth="no"/>
      <point x="354" y="876" type="line" smooth="no"/>
      <point x="357" y="876" type="line" smooth="no"/>
      <point x="352" y="876" type="line" smooth="no"/>
      <point x="354" y="876" type="line" smooth="no"/>
      <point x="349" y="876" type="line" smooth="no"/>
      <point x="352" y="876" type="line" smooth="no"/>
      <point x="346" y="876" type="line" smooth="no"/>
      <point x="349" y="876" type="line" smooth="no"/>
      <point x="344" y="876" type="line" smooth="no"/>
      <point x="346" y="876" type="line" smooth="no"/>
      <point x="342" y="876" type="line" smooth="no"/>
      <point x="344" y="876" type="line" smooth="no"/>
      <point x="339" y="876" type="line" smooth="no"/>
      <point x="342" y="876" type="line" smooth="no"/>
      <point x="336" y="876" type="line" smooth="no"/>
      <point x="339" y="876" type="line" smooth="no"/>
      <point x="334" y="876" type="line" smooth="no"/>
      <point x="336" y="876" type="line" smooth="no"/>
      <point x="331" y="876" type="line" smooth="no"/>
      <point x="334" y="876" type="line" smooth="no"/>
      <point x="329" y="876" type="line" smooth="no"/>
      <point x="331" y="876" type="line" smooth="no"/>
      <point x="327" y="876" type="line" smooth="no"/>
      <point x="329" y="876" type="line" smooth="no"/>
      <point x="324" y="876" type="line" smooth="no"/>
      <point x="327" y="876" type="line" smooth="no"/>
      <point x="322" y="876" type="line" smooth="no"/>
      <point x="324" y="876" type="line" smooth="no"/>
      <point x="319" y="876" type="line" smooth="no"/>
      <point x="322" y="876" type="line" smooth="no"/>
      <point x="316" y="876" type="line" smooth="no"/>
      <point x="319" y="876" type="line" smooth="no"/>
      <point x="314" y="876" type="line" smooth="no"/>
      <point x="316" y="876" type="line" smooth="no"/>
      <point x="312" y="876" type="line" smooth="no"/>
      <point x="314" y="876" type="line" smooth="no"/>
      <point x="309" y="876" type="line" smooth="no"/>
      <point x="312" y="876" type="line" smooth="no"/>
      <point x="306" y="876" type="line" smooth="no"/>
      <point x="309" y="876" type="line" smooth="no"/>
      <point x="304" y="876" type="line" smooth="no"/>
      <point x="306" y="876" type="line" smooth="no"/>
      <point x="301" y="876" type="line" smooth="no"/>
      <point x="304" y="876" type="line" smooth="no"/>
      <point x="299" y="876" type="line" smooth="no"/>
      <point x="301" y="876" type="line" smooth="no"/>
      <point x="297" y="876" type="line" smooth="no"/>
      <point x="299" y="876" type="line" smooth="no"/>
      <point x="294" y="876" type="line" smooth="no"/>
      <point x="297" y="876" type="line" smooth="no"/>
      <point x="292" y="876" type="line" smooth="no"/>
      <point x="294" y="876" type="line" smooth="no"/>
      <point x="289" y="876" type="line" smooth="no"/>
      <point x="292" y="876" type="line" smooth="no"/>
      <point x="286" y="876" type="line" smooth="no"/>
      <point x="289" y="876" type="line" smooth="no"/>
      <point x="284" y="876" type="line" smooth="no"/>
      <point x="286" y="876" type="line" smooth="no"/>
      <point x="282" y="876" type="line" smooth="no"/>
      <point x="284" y="876" type="line" smooth="no"/>
      <point x="279" y="876" type="line" smooth="no"/>
      <point x="282" y="876" type="line" smooth="no"/>
      <point x="276" y="876" type="line" smooth="no"/>
      <point x="279" y="876" type="line" smooth="no"/>
      <point x="274" y="876" type="line" smooth="no"/>
      <point x="276" y="876" type="line" smooth="no"/>
      <point x="272" y="876" type="line" smooth="no"/>
      <point x="274" y="876" type="line" smooth="no"/>
      <point x="269" y="876" type="line" smooth="no"/>
      <point x="272" y="876" type="line" smooth="no"/>
      <point x="267" y="876" type="line" smooth="no"/>
      <point x="269" y="876" type="line" smooth="no"/>
      <point x="264" y="876" type="line" smooth="no"/>
      <point x="267" y="876" type="line" smooth="no"/>
      <point x="262" y="876" type="line" smooth="no"/>
      <point x="264" y="876" type="line" smooth="no"/>
      <point x="259" y="876" type="line" smooth="no"/>
      <point x="262" y="876" type="line" smooth="no"/>
      <point x="256" y="876" type="line" smooth="no"/>
      <point x="259" y="876" type="line" smooth="no"/>
      <point x="254" y="876" type="line" smooth="no"/>
      <point x="256" y="876" type="line" smooth="no"/>
      <point x="252" y="876" type="line" smooth="no"/>
      <point x="254" y="876" type="line" smooth="no"/>
      <point x="249" y="876" type="line" smooth="no"/>
      <point x="252" y="876" type="line" smooth="no"/>
      <point x="249" y="876" type="line" smooth="no"/>
    </contour>
    <contour>
      <point x="259" y="750" type="line" smooth="no"/>
      <point x="292" y="750" type="line" smooth="no"/>
      <point x="369" y="750" type="line" smooth="no"/>
      <point x="404" y="750" type="line" smooth="no"/>
      <point x="412" y="750" type="line" smooth="no"/>
      <point x="424" y="750" type="line" smooth="no"/>
      <point x="432" y="750" type="line" smooth="no"/>
      <point x="442" y="750" type="line" smooth="no"/>
      <point x="449" y="750" type="line" smooth="no"/>
      <point x="499" y="750" type="line" smooth="no"/>
      <point x="499" y="626" type="line" smooth="no"/>
      <point x="484" y="626" type="line" smooth="no"/>
      <point x="451" y="626" type="line" smooth="no"/>
      <point x="444" y="626" type="line" smooth="no"/>
      <point x="436" y="626" type="line" smooth="no"/>
      <point x="429" y="626" type="line" smooth="no"/>
      <point x="396" y="626" type="line" smooth="no"/>
      <point x="369" y="626" type="line" smooth="no"/>
      <point x="359" y="626" type="line" smooth="no"/>
      <point x="349" y="626" type="line" smooth="no"/>
      <point x="339" y="626" type="line" smooth="no"/>
      <point x="327" y="626" type="line" smooth="no"/>
      <point x="249" y="626" type="line" smooth="no"/>
      <point x="249" y="668" type="line" smooth="no"/>
      <point x="249" y="688" type="line" smooth="no"/>
      <point x="247" y="726"/>
      <point x="252" y="750" type="qcurve" smooth="no"/>
    </contour>
    <contour>
      <point x="134" y="376" type="line" smooth="no"/>
      <point x="167" y="376" type="line" smooth="no"/>
      <point x="244" y="376" type="line" smooth="no"/>
      <point x="279" y="376" type="line" smooth="no"/>
      <point x="286" y="376" type="line" smooth="no"/>
      <point x="299" y="376" type="line" smooth="no"/>
      <point x="306" y="376" type="line" smooth="no"/>
      <point x="316" y="376" type="line" smooth="no"/>
      <point x="324" y="376" type="line" smooth="no"/>
      <point x="374" y="376" type="line" smooth="no"/>
      <point x="374" y="250" type="line" smooth="no"/>
      <point x="384" y="250" type="line" smooth="no"/>
      <point x="412" y="250" type="line" smooth="no"/>
      <point x="424" y="250" type="line" smooth="no"/>
      <point x="432" y="250" type="line" smooth="no"/>
      <point x="442" y="250" type="line" smooth="no"/>
      <point x="449" y="250" type="line" smooth="no"/>
      <point x="499" y="250" type="line" smooth="no"/>
      <point x="499" y="126" type="line" smooth="no"/>
      <point x="481" y="126" type="line" smooth="no"/>
      <point x="464" y="126" type="line" smooth="no"/>
      <point x="454" y="126" type="line" smooth="no"/>
      <point x="442" y="126" type="line" smooth="no"/>
      <point x="409" y="126" type="line" smooth="no"/>
      <point x="396" y="126" type="line" smooth="no"/>
      <point x="319" y="126" type="line" smooth="no"/>
      <point x="309" y="126" type="line" smooth="no"/>
      <point x="299" y="126" type="line" smooth="no"/>
      <point x="292" y="126" type="line" smooth="no"/>
      <point x="246" y="126" type="line" smooth="no"/>
      <point x="214" y="126" type="line" smooth="no"/>
      <point x="202" y="126" type="line" smooth="no"/>
      <point x="124" y="126" type="line" smooth="no"/>
      <point x="124" y="140" type="line" smooth="no"/>
      <point x="124" y="148" type="line" smooth="no"/>
      <point x="124" y="198" type="line" smooth="no"/>
      <point x="124" y="210" type="line" smooth="no"/>
      <point x="124" y="218" type="line" smooth="no"/>
      <point x="124" y="230" type="line" smooth="no"/>
      <point x="124" y="240" type="line" smooth="no"/>
      <point x="124" y="248" type="line" smooth="no"/>
      <point x="124" y="260" type="line" smooth="no"/>
      <point x="124" y="273" type="line" smooth="no"/>
      <point x="124" y="280" type="line" smooth="no"/>
      <point x="124" y="288" type="line" smooth="no"/>
      <point x="124" y="296" type="line" smooth="no"/>
      <point x="124" y="303" type="line" smooth="no"/>
      <point x="124" y="320" type="line" smooth="no"/>
      <point x="124" y="328" type="line" smooth="no"/>
      <point x="124" y="336" type="line" smooth="no"/>
      <point x="123" y="359"/>
      <point x="127" y="376" type="qcurve" smooth="no"/>
    </contour>
  </outline>
</glyph>
<glyph name="quotesingle" format="1">
  <advance width="250"/>
  <unicode hex="0027"/>
  <outline>
    <contour>
      <point x="0" y="625" type="line" smooth="no"/>
      <point x="10" y="625" type="line" smooth="no"/>
      <point x="20" y="625" type="line" smooth="no"/>
      <point x="30" y="625" type="line" smooth="no"/>
      <point x="40" y="625" type="line" smooth="no"/>
      <point x="83" y="625" type="line" smooth="no"/>
      <point x="103" y="625" type="line" smooth="no"/>
      <point x="120" y="625" type="line" smooth="no"/>
      <point x="125" y="631"/>
      <point x="126" y="638" type="qcurve" smooth="no"/>
      <point x="126" y="680" type="line" smooth="no"/>
      <point x="126" y="690" type="line" smooth="no"/>
      <point x="126" y="700" type="line" smooth="no"/>
      <point x="126" y="708" type="line" smooth="no"/>
      <point x="126" y="752" type="line" smooth="no"/>
      <point x="126" y="785" type="line" smooth="no"/>
      <point x="126" y="795" type="line" smooth="no"/>
      <point x="126" y="838" type="line" smooth="no"/>
      <point x="126" y="845" type="line" smooth="no"/>
      <point x="126" y="875" type="line" smooth="no"/>
      <point x="116" y="875" type="line" smooth="no"/>
      <point x="88" y="875" type="line" smooth="no"/>
      <point x="76" y="875" type="line" smooth="no"/>
      <point x="68" y="875" type="line" smooth="no"/>
      <point x="58" y="875" type="line" smooth="no"/>
      <point x="50" y="875" type="line" smooth="no"/>
      <point x="0" y="875" type="line" smooth="no"/>
    </contour>
  </outline>
</glyph>
<glyph name="parenleft" format="1">
  <advance width="500"/>
  <unicode hex="0028"/>
  <outline>
    <contour>
      <point x="250" y="874" type="line" smooth="no"/>
      <point x="240" y="874" type="line" smooth="no"/>
      <point x="213" y="874" type="line" smooth="no"/>
      <point x="200" y="874" type="line" smooth="no"/>
      <point x="193" y="874" type="line" smooth="no"/>
      <point x="183" y="874" type="line" smooth="no"/>
      <point x="176" y="874" type="line" smooth="no"/>
      <point x="126" y="874" type="line" smooth="no"/>
      <point x="126" y="750" type="line" smooth="no"/>
      <point x="116" y="750" type="line" smooth="no"/>
      <point x="88" y="750" type="line" smooth="no"/>
      <point x="76" y="750" type="line" smooth="no"/>
      <point x="68" y="750" type="line" smooth="no"/>
      <point x="58" y="750" type="line" smooth="no"/>
      <point x="50" y="750" type="line" smooth="no"/>
      <point x="0" y="750" type="line" smooth="no"/>
      <point x="0" y="124" type="line" smooth="no"/>
      <point x="10" y="124" type="line" smooth="no"/>
      <point x="38" y="124" type="line" smooth="no"/>
      <point x="50" y="124" type="line" smooth="no"/>
      <point x="58" y="124" type="line" smooth="no"/>
      <point x="68" y="124" type="line" smooth="no"/>
      <point x="76" y="124" type="line" smooth="no"/>
      <point x="126" y="124" type="line" smooth="no"/>
      <point x="126" y="0" type="line" smooth="no"/>
      <point x="136" y="0" type="line" smooth="no"/>
      <point x="163" y="0" type="line" smooth="no"/>
      <point x="176" y="0" type="line" smooth="no"/>
      <point x="183" y="0" type="line" smooth="no"/>
      <point x="193" y="0" type="line" smooth="no"/>
      <point x="200" y="0" type="line" smooth="no"/>
      <point x="250" y="0" type="line" smooth="no"/>
      <point x="250" y="-126" type="line" smooth="no"/>
      <point x="260" y="-126" type="line" smooth="no"/>
      <point x="288" y="-126" type="line" smooth="no"/>
      <point x="300" y="-126" type="line" smooth="no"/>
      <point x="308" y="-126" type="line" smooth="no"/>
      <point x="318" y="-126" type="line" smooth="no"/>
      <point x="326" y="-126" type="line" smooth="no"/>
      <point x="376" y="-126" type="line" smooth="no"/>
      <point x="376" y="-116" type="line" smooth="no"/>
      <point x="376" y="-88" type="line" smooth="no"/>
      <point x="376" y="-76" type="line" smooth="no"/>
      <point x="376" y="-68" type="line" smooth="no"/>
      <point x="376" y="-58" type="line" smooth="no"/>
      <point x="376" y="-50" type="line" smooth="no"/>
      <point x="376" y="0" type="line" smooth="no"/>
      <point x="366" y="0" type="line" smooth="no"/>
      <point x="338" y="0" type="line" smooth="no"/>
      <point x="326" y="0" type="line" smooth="no"/>
      <point x="318" y="0" type="line" smooth="no"/>
      <point x="308" y="0" type="line" smooth="no"/>
      <point x="300" y="0" type="line" smooth="no"/>
      <point x="250" y="0" type="line" smooth="no"/>
      <point x="250" y="10" type="line" smooth="no"/>
      <point x="250" y="37" type="line" smooth="no"/>
      <point x="250" y="50" type="line" smooth="no"/>
      <point x="250" y="57" type="line" smooth="no"/>
      <point x="250" y="67" type="line" smooth="no"/>
      <point x="250" y="74" type="line" smooth="no"/>
      <point x="250" y="124" type="line" smooth="no"/>
      <point x="240" y="124" type="line" smooth="no"/>
      <point x="213" y="124" type="line" smooth="no"/>
      <point x="200" y="124" type="line" smooth="no"/>
      <point x="193" y="124" type="line" smooth="no"/>
      <point x="183" y="124" type="line" smooth="no"/>
      <point x="176" y="124" type="line" smooth="no"/>
      <point x="126" y="124" type="line" smooth="no"/>
      <point x="126" y="132" type="line" smooth="no"/>
      <point x="126" y="140" type="line" smooth="no"/>
      <point x="126" y="172" type="line" smooth="no"/>
      <point x="126" y="180" type="line" smooth="no"/>
      <point x="126" y="192" type="line" smooth="no"/>
      <point x="126" y="200" type="line" smooth="no"/>
      <point x="126" y="210" type="line" smooth="no"/>
      <point x="126" y="217" type="line" smooth="no"/>
      <point x="126" y="267" type="line" smooth="no"/>
      <point x="126" y="287" type="line" smooth="no"/>
      <point x="126" y="322" type="line" smooth="no"/>
      <point x="126" y="330" type="line" smooth="no"/>
      <point x="126" y="342" type="line" smooth="no"/>
      <point x="126" y="350" type="line" smooth="no"/>
      <point x="126" y="360" type="line" smooth="no"/>
      <point x="126" y="367" type="line" smooth="no"/>
      <point x="126" y="417" type="line" smooth="no"/>
      <point x="126" y="460" type="line" smooth="no"/>
      <point x="126" y="467" type="line" smooth="no"/>
      <point x="126" y="497" type="line" smooth="no"/>
      <point x="126" y="507" type="line" smooth="no"/>
      <point x="126" y="514" type="line" smooth="no"/>
      <point x="126" y="564" type="line" smooth="no"/>
      <point x="126" y="574" type="line" smooth="no"/>
      <point x="126" y="582" type="line" smooth="no"/>
      <point x="126" y="627" type="line" smooth="no"/>
      <point x="126" y="660" type="line" smooth="no"/>
      <point x="126" y="670" type="line" smooth="no"/>
      <point x="126" y="712" type="line" smooth="no"/>
      <point x="126" y="720" type="line" smooth="no"/>
      <point x="126" y="750" type="line" smooth="no"/>
      <point x="136" y="750" type="line" smooth="no"/>
      <point x="163" y="750" type="line" smooth="no"/>
      <point x="176" y="750" type="line" smooth="no"/>
      <point x="183" y="750" type="line" smooth="no"/>
      <point x="193" y="750" type="line" smooth="no"/>
      <point x="200" y="750" type="line" smooth="no"/>
      <point x="250" y="750" type="line" smooth="no"/>
      <point x="250" y="760" type="line" smooth="no"/>
      <point x="250" y="787" type="line" smooth="no"/>
      <point x="250" y="800" type="line" smooth="no"/>
      <point x="250" y="807" type="line" smooth="no"/>
      <point x="250" y="817" type="line" smooth="no"/>
      <point x="250" y="824" type="line" smooth="no"/>
      <point x="250" y="874" type="line" smooth="no"/>
      <point x="260" y="874" type="line" smooth="no"/>
      <point x="288" y="874" type="line" smooth="no"/>
      <point x="300" y="874" type="line" smooth="no"/>
      <point x="308" y="874" type="line" smooth="no"/>
      <point x="318" y="874" type="line" smooth="no"/>
      <point x="326" y="874" type="line" smooth="no"/>
      <point x="376" y="874" type="line" smooth="no"/>
      <point x="376" y="884" type="line" smooth="no"/>
      <point x="376" y="912" type="line" smooth="no"/>
      <point x="376" y="924" type="line" smooth="no"/>
      <point x="376" y="932" type="line" smooth="no"/>
      <point x="376" y="942" type="line" smooth="no"/>
      <point x="376" y="950" type="line" smooth="no"/>
      <point x="376" y="1000" type="line" smooth="no"/>
      <point x="366" y="1000" type="line" smooth="no"/>
      <point x="338" y="1000" type="line" smooth="no"/>
      <point x="326" y="1000" type="line" smooth="no"/>
      <point x="318" y="1000" type="line" smooth="no"/>
      <point x="308" y="1000" type="line" smooth="no"/>
      <point x="300" y="1000" type="line" smooth="no"/>
      <point x="250" y="1000" type="line" smooth="no"/>
    </contour>
  </outline>
</glyph>
<glyph name="parenright" format="1">
  <advance width="500"/>
  <unicode hex="0029"/>
  <outline>
    <contour>
      <point x="125" y="874" type="line" smooth="no"/>
      <point x="135" y="874" type="line" smooth="no"/>
      <point x="162" y="874" type="line" smooth="no"/>
      <point x="175" y="874" type="line" smooth="no"/>
      <point x="182" y="874" type="line" smooth="no"/>
      <point x="192" y="874" type="line" smooth="no"/>
      <point x="199" y="874" type="line" smooth="no"/>
      <point x="249" y="874" type="line" smooth="no"/>
      <point x="249" y="750" type="line" smooth="no"/>
      <point x="259" y="750" type="line" smooth="no"/>
      <point x="287" y="750" type="line" smooth="no"/>
      <point x="299" y="750" type="line" smooth="no"/>
      <point x="307" y="750" type="line" smooth="no"/>
      <point x="317" y="750" type="line" smooth="no"/>
      <point x="325" y="750" type="line" smooth="no"/>
      <point x="375" y="750" type="line" smooth="no"/>
      <point x="375" y="124" type="line" smooth="no"/>
      <point x="365" y="124" type="line" smooth="no"/>
      <point x="337" y="124" type="line" smooth="no"/>
      <point x="325" y="124" type="line" smooth="no"/>
      <point x="317" y="124" type="line" smooth="no"/>
      <point x="307" y="124" type="line" smooth="no"/>
      <point x="299" y="124" type="line" smooth="no"/>
      <point x="249" y="124" type="line" smooth="no"/>
      <point x="249" y="0" type="line" smooth="no"/>
      <point x="239" y="0" type="line" smooth="no"/>
      <point x="212" y="0" type="line" smooth="no"/>
      <point x="199" y="0" type="line" smooth="no"/>
      <point x="192" y="0" type="line" smooth="no"/>
      <point x="182" y="0" type="line" smooth="no"/>
      <point x="175" y="0" type="line" smooth="no"/>
      <point x="125" y="0" type="line" smooth="no"/>
      <point x="125" y="-126" type="line" smooth="no"/>
      <point x="115" y="-126" type="line" smooth="no"/>
      <point x="87" y="-126" type="line" smooth="no"/>
      <point x="75" y="-126" type="line" smooth="no"/>
      <point x="67" y="-126" type="line" smooth="no"/>
      <point x="57" y="-126" type="line" smooth="no"/>
      <point x="49" y="-126" type="line" smooth="no"/>
      <point x="-1" y="-126" type="line" smooth="no"/>
      <point x="-1" y="-116" type="line" smooth="no"/>
      <point x="-1" y="-88" type="line" smooth="no"/>
      <point x="-1" y="-76" type="line" smooth="no"/>
      <point x="-1" y="-68" type="line" smooth="no"/>
      <point x="-1" y="-58" type="line" smooth="no"/>
      <point x="-1" y="-50" type="line" smooth="no"/>
      <point x="-1" y="0" type="line" smooth="no"/>
      <point x="9" y="0" type="line" smooth="no"/>
      <point x="37" y="0" type="line" smooth="no"/>
      <point x="49" y="0" type="line" smooth="no"/>
      <point x="57" y="0" type="line" smooth="no"/>
      <point x="67" y="0" type="line" smooth="no"/>
      <point x="75" y="0" type="line" smooth="no"/>
      <point x="125" y="0" type="line" smooth="no"/>
      <point x="125" y="10" type="line" smooth="no"/>
      <point x="125" y="37" type="line" smooth="no"/>
      <point x="125" y="50" type="line" smooth="no"/>
      <point x="125" y="57" type="line" smooth="no"/>
      <point x="125" y="67" type="line" smooth="no"/>
      <point x="125" y="74" type="line" smooth="no"/>
      <point x="125" y="124" type="line" smooth="no"/>
      <point x="135" y="124" type="line" smooth="no"/>
      <point x="162" y="124" type="line" smooth="no"/>
      <point x="175" y="124" type="line" smooth="no"/>
      <point x="182" y="124" type="line" smooth="no"/>
      <point x="192" y="124" type="line" smooth="no"/>
      <point x="199" y="124" type="line" smooth="no"/>
      <point x="249" y="124" type="line" smooth="no"/>
      <point x="249" y="132" type="line" smooth="no"/>
      <point x="249" y="140" type="line" smooth="no"/>
      <point x="249" y="172" type="line" smooth="no"/>
      <point x="249" y="180" type="line" smooth="no"/>
      <point x="249" y="192" type="line" smooth="no"/>
      <point x="249" y="200" type="line" smooth="no"/>
      <point x="249" y="210" type="line" smooth="no"/>
      <point x="249" y="217" type="line" smooth="no"/>
      <point x="249" y="267" type="line" smooth="no"/>
      <point x="249" y="287" type="line" smooth="no"/>
      <point x="249" y="322" type="line" smooth="no"/>
      <point x="249" y="330" type="line" smooth="no"/>
      <point x="249" y="342" type="line" smooth="no"/>
      <point x="249" y="350" type="line" smooth="no"/>
      <point x="249" y="360" type="line" smooth="no"/>
      <point x="249" y="367" type="line" smooth="no"/>
      <point x="249" y="417" type="line" smooth="no"/>
      <point x="249" y="460" type="line" smooth="no"/>
      <point x="249" y="467" type="line" smooth="no"/>
      <point x="249" y="497" type="line" smooth="no"/>
      <point x="249" y="507" type="line" smooth="no"/>
      <point x="249" y="514" type="line" smooth="no"/>
      <point x="249" y="564" type="line" smooth="no"/>
      <point x="249" y="574" type="line" smooth="no"/>
      <point x="249" y="582" type="line" smooth="no"/>
      <point x="249" y="627" type="line" smooth="no"/>
      <point x="249" y="660" type="line" smooth="no"/>
      <point x="249" y="670" type="line" smooth="no"/>
      <point x="249" y="712" type="line" smooth="no"/>
      <point x="249" y="720" type="line" smooth="no"/>
      <point x="249" y="750" type="line" smooth="no"/>
      <point x="239" y="750" type="line" smooth="no"/>
      <point x="212" y="750" type="line" smooth="no"/>
      <point x="199" y="750" type="line" smooth="no"/>
      <point x="192" y="750" type="line" smooth="no"/>
      <point x="182" y="750" type="line" smooth="no"/>
      <point x="175" y="750" type="line" smooth="no"/>
      <point x="125" y="750" type="line" smooth="no"/>
      <point x="125" y="760" type="line" smooth="no"/>
      <point x="125" y="787" type="line" smooth="no"/>
      <point x="125" y="800" type="line" smooth="no"/>
      <point x="125" y="807" type="line" smooth="no"/>
      <point x="125" y="817" type="line" smooth="no"/>
      <point x="125" y="824" type="line" smooth="no"/>
      <point x="125" y="874" type="line" smooth="no"/>
      <point x="115" y="874" type="line" smooth="no"/>
      <point x="87" y="874" type="line" smooth="no"/>
      <point x="75" y="874" type="line" smooth="no"/>
      <point x="67" y="874" type="line" smooth="no"/>
      <point x="57" y="874" type="line" smooth="no"/>
      <point x="49" y="874" type="line" smooth="no"/>
      <point x="-1" y="874" type="line" smooth="no"/>
      <point x="-1" y="884" type="line" smooth="no"/>
      <point x="-1" y="912" type="line" smooth="no"/>
      <point x="-1" y="924" type="line" smooth="no"/>
      <point x="-1" y="932" type="line" smooth="no"/>
      <point x="-1" y="942" type="line" smooth="no"/>
      <point x="-1" y="950" type="line" smooth="no"/>
      <point x="-1" y="1000" type="line" smooth="no"/>
      <point x="9" y="1000" type="line" smooth="no"/>
      <point x="37" y="1000" type="line" smooth="no"/>
      <point x="49" y="1000" type="line" smooth="no"/>
      <point x="57" y="1000" type="line" smooth="no"/>
      <point x="67" y="1000" type="line" smooth="no"/>
      <point x="75" y="1000" type="line" smooth="no"/>
      <point x="125" y="1000" type="line" smooth="no"/>
    </contour>
  </outline>
</glyph>
<glyph name="asterisk" format="1">
  <advance width="500"/>
  <unicode hex="002a"/>
  <outline>
    <contour>
      <point x="126" y="750" type="line" smooth="no"/>
      <point x="116" y="750" type="line" smooth="no"/>
      <point x="88" y="750" type="line" smooth="no"/>
      <point x="76" y="750" type="line" smooth="no"/>
      <point x="68" y="750" type="line" smooth="no"/>
      <point x="58" y="750" type="line" smooth="no"/>
      <point x="50" y="750" type="line" smooth="no"/>
      <point x="0" y="750" type="line" smooth="no"/>
      <point x="0" y="626" type="line" smooth="no"/>
      <point x="10" y="626" type="line" smooth="no"/>
      <point x="38" y="626" type="line" smooth="no"/>
      <point x="50" y="626" type="line" smooth="no"/>
      <point x="58" y="626" type="line" smooth="no"/>
      <point x="68" y="626" type="line" smooth="no"/>
      <point x="76" y="626" type="line" smooth="no"/>
      <point x="126" y="626" type="line" smooth="no"/>
      <point x="126" y="500" type="line" smooth="no"/>
      <point x="136" y="500" type="line" smooth="no"/>
      <point x="143" y="500" type="line" smooth="no"/>
      <point x="156" y="500" type="line" smooth="no"/>
      <point x="163" y="500" type="line" smooth="no"/>
      <point x="173" y="500" type="line" smooth="no"/>
      <point x="180" y="500" type="line" smooth="no"/>
      <point x="230" y="500" type="line" smooth="no"/>
      <point x="250" y="500" type="line" smooth="no"/>
      <point x="250" y="510" type="line" smooth="no"/>
      <point x="250" y="538" type="line" smooth="no"/>
      <point x="250" y="550" type="line" smooth="no"/>
      <point x="250" y="558" type="line" smooth="no"/>
      <point x="250" y="568" type="line" smooth="no"/>
      <point x="250" y="576" type="line" smooth="no"/>
      <point x="250" y="626" type="line" smooth="no"/>
      <point x="260" y="626" type="line" smooth="no"/>
      <point x="288" y="626" type="line" smooth="no"/>
      <point x="300" y="626" type="line" smooth="no"/>
      <point x="308" y="626" type="line" smooth="no"/>
      <point x="318" y="626" type="line" smooth="no"/>
      <point x="326" y="626" type="line" smooth="no"/>
      <point x="376" y="626" type="line" smooth="no"/>
      <point x="376" y="636" type="line" smooth="no"/>
      <point x="376" y="663" type="line" smooth="no"/>
      <point x="376" y="676" type="line" smooth="no"/>
      <point x="376" y="683" type="line" smooth="no"/>
      <point x="376" y="693" type="line" smooth="no"/>
      <point x="376" y="700" type="line" smooth="no"/>
      <point x="376" y="750" type="line" smooth="no"/>
      <point x="366" y="750" type="line" smooth="no"/>
      <point x="338" y="750" type="line" smooth="no"/>
      <point x="326" y="750" type="line" smooth="no"/>
      <point x="318" y="750" type="line" smooth="no"/>
      <point x="308" y="750" type="line" smooth="no"/>
      <point x="300" y="750" type="line" smooth="no"/>
      <point x="250" y="750" type="line" smooth="no"/>
      <point x="250" y="760" type="line" smooth="no"/>
      <point x="250" y="788" type="line" smooth="no"/>
      <point x="250" y="800" type="line" smooth="no"/>
      <point x="250" y="808" type="line" smooth="no"/>
      <point x="250" y="818" type="line" smooth="no"/>
      <point x="250" y="826" type="line" smooth="no"/>
      <point x="250" y="876" type="line" smooth="no"/>
      <point x="240" y="876" type="line" smooth="no"/>
      <point x="213" y="876" type="line" smooth="no"/>
      <point x="200" y="876" type="line" smooth="no"/>
      <point x="193" y="876" type="line" smooth="no"/>
      <point x="183" y="876" type="line" smooth="no"/>
      <point x="176" y="876" type="line" smooth="no"/>
      <point x="126" y="876" type="line" smooth="no"/>
    </contour>
  </outline>
</glyph>
<glyph name="plus" format="1">
  <advance width="750"/>
  <unicode hex="002b"/>
  <outline>
    <contour>
      <point x="250" y="500" type="line" smooth="no"/>
      <point x="236" y="500" type="line" smooth="no"/>
      <point x="203" y="500" type="line" smooth="no"/>
      <point x="193" y="500" type="line" smooth="no"/>
      <point x="148" y="500" type="line" smooth="no"/>
      <point x="120" y="500" type="line" smooth="no"/>
      <point x="110" y="500" type="line" smooth="no"/>
      <point x="100" y="500" type="line" smooth="no"/>
      <point x="90" y="500" type="line" smooth="no"/>
      <point x="80" y="500" type="line" smooth="no"/>
      <point x="38" y="500" type="line" smooth="no"/>
      <point x="30" y="500" type="line" smooth="no"/>
      <point x="0" y="500" type="line" smooth="no"/>
      <point x="0" y="376" type="line" smooth="no"/>
      <point x="50" y="376" type="line" smooth="no"/>
      <point x="63" y="376" type="line" smooth="no"/>
      <point x="106" y="376" type="line" smooth="no"/>
      <point x="116" y="376" type="line" smooth="no"/>
      <point x="128" y="376" type="line" smooth="no"/>
      <point x="160" y="376" type="line" smooth="no"/>
      <point x="170" y="376" type="line" smooth="no"/>
      <point x="213" y="376" type="line" smooth="no"/>
      <point x="220" y="376" type="line" smooth="no"/>
      <point x="250" y="376" type="line" smooth="no"/>
      <point x="250" y="126" type="line" smooth="no"/>
      <point x="260" y="126" type="line" smooth="no"/>
      <point x="270" y="126" type="line" smooth="no"/>
      <point x="280" y="126" type="line" smooth="no"/>
      <point x="290" y="126" type="line" smooth="no"/>
      <point x="333" y="126" type="line" smooth="no"/>
      <point x="353" y="126" type="line" smooth="no"/>
      <point x="370" y="126" type="line" smooth="no"/>
      <point x="375" y="131"/>
      <point x="376" y="138" type="qcurve" smooth="no"/>
      <point x="376" y="180" type="line" smooth="no"/>
      <point x="376" y="190" type="line" smooth="no"/>
      <point x="376" y="200" type="line" smooth="no"/>
      <point x="376" y="208" type="line" smooth="no"/>
      <point x="376" y="253" type="line" smooth="no"/>
      <point x="376" y="286" type="line" smooth="no"/>
      <point x="376" y="296" type="line" smooth="no"/>
      <point x="376" y="338" type="line" smooth="no"/>
      <point x="376" y="346" type="line" smooth="no"/>
      <point x="376" y="376" type="line" smooth="no"/>
      <point x="390" y="376" type="line" smooth="no"/>
      <point x="423" y="376" type="line" smooth="no"/>
      <point x="433" y="376" type="line" smooth="no"/>
      <point x="478" y="376" type="line" smooth="no"/>
      <point x="506" y="376" type="line" smooth="no"/>
      <point x="516" y="376" type="line" smooth="no"/>
      <point x="526" y="376" type="line" smooth="no"/>
      <point x="536" y="376" type="line" smooth="no"/>
      <point x="546" y="376" type="line" smooth="no"/>
      <point x="588" y="376" type="line" smooth="no"/>
      <point x="596" y="376" type="line" smooth="no"/>
      <point x="626" y="376" type="line" smooth="no"/>
      <point x="626" y="386" type="line" smooth="no"/>
      <point x="626" y="413" type="line" smooth="no"/>
      <point x="626" y="426" type="line" smooth="no"/>
      <point x="626" y="433" type="line" smooth="no"/>
      <point x="626" y="443" type="line" smooth="no"/>
      <point x="626" y="450" type="line" smooth="no"/>
      <point x="626" y="500" type="line" smooth="no"/>
      <point x="576" y="500" type="line" smooth="no"/>
      <point x="563" y="500" type="line" smooth="no"/>
      <point x="520" y="500" type="line" smooth="no"/>
      <point x="510" y="500" type="line" smooth="no"/>
      <point x="498" y="500" type="line" smooth="no"/>
      <point x="466" y="500" type="line" smooth="no"/>
      <point x="456" y="500" type="line" smooth="no"/>
      <point x="413" y="500" type="line" smooth="no"/>
      <point x="406" y="500" type="line" smooth="no"/>
      <point x="376" y="500" type="line" smooth="no"/>
      <point x="376" y="516" type="line" smooth="no"/>
      <point x="376" y="548" type="line" smooth="no"/>
      <point x="376" y="558" type="line" smooth="no"/>
      <point x="376" y="603" type="line" smooth="no"/>
      <point x="376" y="630" type="line" smooth="no"/>
      <point x="376" y="640" type="line" smooth="no"/>
      <point x="376" y="650" type="line" smooth="no"/>
      <point x="376" y="660" type="line" smooth="no"/>
      <point x="376" y="670" type="line" smooth="no"/>
      <point x="376" y="713" type="line" smooth="no"/>
      <point x="376" y="720" type="line" smooth="no"/>
      <point x="376" y="750" type="line" smooth="no"/>
      <point x="366" y="750" type="line" smooth="no"/>
      <point x="338" y="750" type="line" smooth="no"/>
      <point x="326" y="750" type="line" smooth="no"/>
      <point x="318" y="750" type="line" smooth="no"/>
      <point x="308" y="750" type="line" smooth="no"/>
      <point x="300" y="750" type="line" smooth="no"/>
      <point x="250" y="750" type="line" smooth="no"/>
    </contour>
  </outline>
</glyph>
<glyph name="comma" format="1">
  <advance width="375"/>
  <unicode hex="002c"/>
  <outline>
    <contour>
      <point x="125" y="-126" type="line" smooth="no"/>
      <point x="115" y="-126" type="line" smooth="no"/>
      <point x="88" y="-126" type="line" smooth="no"/>
      <point x="75" y="-126" type="line" smooth="no"/>
      <point x="68" y="-126" type="line" smooth="no"/>
      <point x="58" y="-126" type="line" smooth="no"/>
      <point x="50" y="-126" type="line" smooth="no"/>
      <point x="0" y="-126" type="line" smooth="no"/>
      <point x="0" y="-250" type="line" smooth="no"/>
      <point x="10" y="-250" type="line" smooth="no"/>
      <point x="38" y="-250" type="line" smooth="no"/>
      <point x="50" y="-250" type="line" smooth="no"/>
      <point x="58" y="-250" type="line" smooth="no"/>
      <point x="68" y="-250" type="line" smooth="no"/>
      <point x="75" y="-250" type="line" smooth="no"/>
      <point x="125" y="-250" type="line" smooth="no"/>
      <point x="125" y="-240" type="line" smooth="no"/>
      <point x="125" y="-213" type="line" smooth="no"/>
      <point x="125" y="-200" type="line" smooth="no"/>
      <point x="125" y="-193" type="line" smooth="no"/>
      <point x="125" y="-183" type="line" smooth="no"/>
      <point x="125" y="-176" type="line" smooth="no"/>
      <point x="125" y="-126" type="line" smooth="no"/>
      <point x="135" y="-126" type="line" smooth="no"/>
      <point x="162" y="-126" type="line" smooth="no"/>
      <point x="175" y="-126" type="line" smooth="no"/>
      <point x="182" y="-126" type="line" smooth="no"/>
      <point x="192" y="-126" type="line" smooth="no"/>
      <point x="200" y="-126" type="line" smooth="no"/>
      <point x="250" y="-126" type="line" smooth="no"/>
      <point x="250" y="-93" type="line" smooth="no"/>
      <point x="250" y="-83" type="line" smooth="no"/>
      <point x="250" y="-73" type="line" smooth="no"/>
      <point x="250" y="-63" type="line" smooth="no"/>
      <point x="250" y="-20" type="line" smooth="no"/>
      <point x="250" y="-13" type="line" smooth="no"/>
      <point x="250" y="17" type="line" smooth="no"/>
      <point x="250" y="42" type="line" smooth="no"/>
      <point x="250" y="52" type="line" smooth="no"/>
      <point x="250" y="62" type="line" smooth="no"/>
      <point x="250" y="70" type="line" smooth="no"/>
      <point x="250" y="80" type="line" smooth="no"/>
      <point x="250" y="124" type="line" smooth="no"/>
      <point x="240" y="124" type="line" smooth="no"/>
      <point x="212" y="124" type="line" smooth="no"/>
      <point x="200" y="124" type="line" smooth="no"/>
      <point x="192" y="124" type="line" smooth="no"/>
      <point x="182" y="124" type="line" smooth="no"/>
      <point x="175" y="124" type="line" smooth="no"/>
      <point x="125" y="124" type="line" smooth="no"/>
    </contour>
  </outline>
</glyph>
<glyph name="hyphen" format="1">
  <advance width="625"/>
  <unicode hex="002d"/>
  <unicode hex="2010"/>
  <outline>
    <contour>
      <point x="0" y="376" type="line" smooth="no"/>
      <point x="8" y="376" type="line" smooth="no"/>
      <point x="58" y="376" type="line" smooth="no"/>
      <point x="78" y="376" type="line" smooth="no"/>
      <point x="95" y="376" type="line" smooth="no"/>
      <point x="112" y="376" type="line" smooth="no"/>
      <point x="120" y="376" type="line" smooth="no"/>
      <point x="128" y="376" type="line" smooth="no"/>
      <point x="205" y="376" type="line" smooth="no"/>
      <point x="222" y="376" type="line" smooth="no"/>
      <point x="238" y="376" type="line" smooth="no"/>
      <point x="255" y="376" type="line" smooth="no"/>
      <point x="270" y="376" type="line" smooth="no"/>
      <point x="282" y="376" type="line" smooth="no"/>
      <point x="298" y="376" type="line" smooth="no"/>
      <point x="308" y="376" type="line" smooth="no"/>
      <point x="352" y="376" type="line" smooth="no"/>
      <point x="380" y="376" type="line" smooth="no"/>
      <point x="390" y="376" type="line" smooth="no"/>
      <point x="400" y="376" type="line" smooth="no"/>
      <point x="410" y="376" type="line" smooth="no"/>
      <point x="420" y="376" type="line" smooth="no"/>
      <point x="462" y="376" type="line" smooth="no"/>
      <point x="482" y="376" type="line" smooth="no"/>
      <point x="500" y="376" type="line" smooth="no"/>
      <point x="500" y="386" type="line" smooth="no"/>
      <point x="500" y="413" type="line" smooth="no"/>
      <point x="500" y="426" type="line" smooth="no"/>
      <point x="500" y="433" type="line" smooth="no"/>
      <point x="500" y="443" type="line" smooth="no"/>
      <point x="500" y="450" type="line" smooth="no"/>
      <point x="500" y="500" type="line" smooth="no"/>
      <point x="492" y="500" type="line" smooth="no"/>
      <point x="442" y="500" type="line" smooth="no"/>
      <point x="422" y="500" type="line" smooth="no"/>
      <point x="405" y="500" type="line" smooth="no"/>
      <point x="388" y="500" type="line" smooth="no"/>
      <point x="380" y="500" type="line" smooth="no"/>
      <point x="372" y="500" type="line" smooth="no"/>
      <point x="295" y="500" type="line" smooth="no"/>
      <point x="278" y="500" type="line" smooth="no"/>
      <point x="262" y="500" type="line" smooth="no"/>
      <point x="245" y="500" type="line" smooth="no"/>
      <point x="230" y="500" type="line" smooth="no"/>
      <point x="218" y="500" type="line" smooth="no"/>
      <point x="202" y="500" type="line" smooth="no"/>
      <point x="192" y="500" type="line" smooth="no"/>
      <point x="148" y="500" type="line" smooth="no"/>
      <point x="120" y="500" type="line" smooth="no"/>
      <point x="110" y="500" type="line" smooth="no"/>
      <point x="100" y="500" type="line" smooth="no"/>
      <point x="90" y="500" type="line" smooth="no"/>
      <point x="80" y="500" type="line" smooth="no"/>
      <point x="38" y="500" type="line" smooth="no"/>
      <point x="30" y="500" type="line" smooth="no"/>
      <point x="0" y="500" type="line" smooth="no"/>
    </contour>
  </outline>
</glyph>
<glyph name="period" format="1">
  <advance width="250"/>
  <unicode hex="002e"/>
  <outline>
    <contour>
      <point x="0" y="0" type="line" smooth="no"/>
      <point x="10" y="0" type="line" smooth="no"/>
      <point x="38" y="0" type="line" smooth="no"/>
      <point x="50" y="0" type="line" smooth="no"/>
      <point x="58" y="0" type="line" smooth="no"/>
      <point x="68" y="0" type="line" smooth="no"/>
      <point x="76" y="0" type="line" smooth="no"/>
      <point x="126" y="0" type="line" smooth="no"/>
      <point x="126" y="10" type="line" smooth="no"/>
      <point x="126" y="18" type="line" smooth="no"/>
      <point x="126" y="30" type="line" smooth="no"/>
      <point x="126" y="38" type="line" smooth="no"/>
      <point x="126" y="48" type="line" smooth="no"/>
      <point x="126" y="56" type="line" smooth="no"/>
      <point x="126" y="106" type="line" smooth="no"/>
      <point x="126" y="126" type="line" smooth="no"/>
      <point x="116" y="126" type="line" smooth="no"/>
      <point x="88" y="126" type="line" smooth="no"/>
      <point x="76" y="126" type="line" smooth="no"/>
      <point x="68" y="126" type="line" smooth="no"/>
      <point x="58" y="126" type="line" smooth="no"/>
      <point x="50" y="126" type="line" smooth="no"/>
      <point x="0" y="126" type="line" smooth="no"/>
    </contour>
  </outline>
</glyph>
<glyph name="one" format="1">
  <advance width="500"/>
  <unicode hex="0031"/>
  <outline>
    <contour>
      <point x="126" y="750" type="line" smooth="no"/>
      <point x="116" y="750" type="line" smooth="no"/>
      <point x="88" y="750" type="line" smooth="no"/>
      <point x="76" y="750" type="line" smooth="no"/>
      <point x="68" y="750" type="line" smooth="no"/>
      <point x="58" y="750" type="line" smooth="no"/>
      <point x="50" y="750" type="line" smooth="no"/>
      <point x="0" y="750" type="line" smooth="no"/>
      <point x="0" y="626" type="line" smooth="no"/>
      <point x="10" y="626" type="line" smooth="no"/>
      <point x="38" y="626" type="line" smooth="no"/>
      <point x="50" y="626" type="line" smooth="no"/>
      <point x="58" y="626" type="line" smooth="no"/>
      <point x="68" y="626" type="line" smooth="no"/>
      <point x="76" y="626" type="line" smooth="no"/>
      <point x="126" y="626" type="line" smooth="no"/>
      <point x="126" y="126" type="line" smooth="no"/>
      <point x="116" y="126" type="line" smooth="no"/>
      <point x="88" y="126" type="line" smooth="no"/>
      <point x="76" y="126" type="line" smooth="no"/>
      <point x="68" y="126" type="line" smooth="no"/>
      <point x="58" y="126" type="line" smooth="no"/>
      <point x="50" y="126" type="line" smooth="no"/>
      <point x="0" y="126" type="line" smooth="no"/>
      <point x="0" y="0" type="line" smooth="no"/>
      <point x="18" y="0" type="line" smooth="no"/>
      <point x="36" y="0" type="line" smooth="no"/>
      <point x="46" y="0" type="line" smooth="no"/>
      <point x="58" y="0" type="line" smooth="no"/>
      <point x="90" y="0" type="line" smooth="no"/>
      <point x="100" y="0" type="line" smooth="no"/>
      <point x="143" y="0" type="line" smooth="no"/>
      <point x="163" y="0" type="line" smooth="no"/>
      <point x="180" y="0" type="line" smooth="no"/>
      <point x="190" y="0" type="line" smooth="no"/>
      <point x="200" y="0" type="line" smooth="no"/>
      <point x="208" y="0" type="line" smooth="no"/>
      <point x="253" y="0" type="line" smooth="no"/>
      <point x="286" y="0" type="line" smooth="no"/>
      <point x="296" y="0" type="line" smooth="no"/>
      <point x="338" y="0" type="line" smooth="no"/>
      <point x="346" y="0" type="line" smooth="no"/>
      <point x="376" y="0" type="line" smooth="no"/>
      <point x="376" y="10" type="line" smooth="no"/>
      <point x="376" y="38" type="line" smooth="no"/>
      <point x="376" y="50" type="line" smooth="no"/>
      <point x="376" y="58" type="line" smooth="no"/>
      <point x="376" y="68" type="line" smooth="no"/>
      <point x="376" y="76" type="line" smooth="no"/>
      <point x="376" y="126" type="line" smooth="no"/>
      <point x="366" y="126" type="line" smooth="no"/>
      <point x="338" y="126" type="line" smooth="no"/>
      <point x="326" y="126" type="line" smooth="no"/>
      <point x="318" y="126" type="line" smooth="no"/>
      <point x="308" y="126" type="line" smooth="no"/>
      <point x="300" y="126" type="line" smooth="no"/>
      <point x="250" y="126" type="line" smooth="no"/>
      <point x="250" y="136" type="line" smooth="no"/>
      <point x="250" y="178" type="line" smooth="no"/>
      <point x="250" y="186" type="line" smooth="no"/>
      <point x="250" y="216" type="line" smooth="no"/>
      <point x="250" y="233" type="line" smooth="no"/>
      <point x="250" y="250" type="line" smooth="no"/>
      <point x="250" y="258" type="line" smooth="no"/>
      <point x="250" y="266" type="line" smooth="no"/>
      <point x="250" y="298" type="line" smooth="no"/>
      <point x="250" y="306" type="line" smooth="no"/>
      <point x="250" y="318" type="line" smooth="no"/>
      <point x="250" y="326" type="line" smooth="no"/>
      <point x="250" y="336" type="line" smooth="no"/>
      <point x="250" y="343" type="line" smooth="no"/>
      <point x="250" y="393" type="line" smooth="no"/>
      <point x="250" y="413" type="line" smooth="no"/>
      <point x="250" y="448" type="line" smooth="no"/>
      <point x="250" y="456" type="line" smooth="no"/>
      <point x="250" y="468" type="line" smooth="no"/>
      <point x="250" y="476" type="line" smooth="no"/>
      <point x="250" y="486" type="line" smooth="no"/>
      <point x="250" y="493" type="line" smooth="no"/>
      <point x="250" y="543" type="line" smooth="no"/>
      <point x="250" y="586" type="line" smooth="no"/>
      <point x="250" y="593" type="line" smooth="no"/>
      <point x="250" y="623" type="line" smooth="no"/>
      <point x="250" y="633" type="line" smooth="no"/>
      <point x="250" y="640" type="line" smooth="no"/>
      <point x="250" y="690" type="line" smooth="no"/>
      <point x="250" y="700" type="line" smooth="no"/>
      <point x="250" y="708" type="line" smooth="no"/>
      <point x="250" y="753" type="line" smooth="no"/>
      <point x="250" y="786" type="line" smooth="no"/>
      <point x="250" y="796" type="line" smooth="no"/>
      <point x="250" y="838" type="line" smooth="no"/>
      <point x="250" y="846" type="line" smooth="no"/>
      <point x="250" y="876" type="line" smooth="no"/>
      <point x="218" y="876" type="line" smooth="no"/>
      <point x="208" y="876" type="line" smooth="no"/>
      <point x="200" y="876" type="line" smooth="no"/>
      <point x="190" y="876" type="line" smooth="no"/>
      <point x="183" y="876" type="line" smooth="no"/>
      <point x="173" y="876" type="line" smooth="no"/>
      <point x="128" y="876" type="line" smooth="no"/>
      <point x="126" y="876" type="line" smooth="no"/>
      <point x="128" y="876" type="line" smooth="no"/>
      <point x="126" y="876" type="line" smooth="no"/>
    </contour>
  </outline>
</glyph>
<glyph name="two" format="1">
  <advance width="750"/>
  <unicode hex="0032"/>
  <outline>
    <contour>
      <point x="126" y="750" type="line" smooth="no"/>
      <point x="116" y="750" type="line" smooth="no"/>
      <point x="88" y="750" type="line" smooth="no"/>
      <point x="76" y="750" type="line" smooth="no"/>
      <point x="68" y="750" type="line" smooth="no"/>
      <point x="58" y="750" type="line" smooth="no"/>
      <point x="50" y="750" type="line" smooth="no"/>
      <point x="0" y="750" type="line" smooth="no"/>
      <point x="0" y="626" type="line" smooth="no"/>
      <point x="10" y="626" type="line" smooth="no"/>
      <point x="38" y="626" type="line" smooth="no"/>
      <point x="50" y="626" type="line" smooth="no"/>
      <point x="58" y="626" type="line" smooth="no"/>
      <point x="68" y="626" type="line" smooth="no"/>
      <point x="76" y="626" type="line" smooth="no"/>
      <point x="126" y="626" type="line" smooth="no"/>
      <point x="126" y="636" type="line" smooth="no"/>
      <point x="126" y="663" type="line" smooth="no"/>
      <point x="126" y="676" type="line" smooth="no"/>
      <point x="126" y="683" type="line" smooth="no"/>
      <point x="126" y="693" type="line" smooth="no"/>
      <point x="126" y="700" type="line" smooth="no"/>
      <point x="126" y="750" type="line" smooth="no"/>
      <point x="136" y="750" type="line" smooth="no"/>
      <point x="146" y="750" type="line" smooth="no"/>
      <point x="153" y="750" type="line" smooth="no"/>
      <point x="203" y="750" type="line" smooth="no"/>
      <point x="210" y="750" type="line" smooth="no"/>
      <point x="256" y="750" type="line" smooth="no"/>
      <point x="263" y="750" type="line" smooth="no"/>
      <point x="340" y="750" type="line" smooth="no"/>
      <point x="383" y="750" type="line" smooth="no"/>
      <point x="410" y="750" type="line" smooth="no"/>
      <point x="420" y="750" type="line" smooth="no"/>
      <point x="463" y="750" type="line" smooth="no"/>
      <point x="483" y="750" type="line" smooth="no"/>
      <point x="500" y="750" type="line" smooth="no"/>
      <point x="500" y="500" type="line" smooth="no"/>
      <point x="490" y="500" type="line" smooth="no"/>
      <point x="463" y="500" type="line" smooth="no"/>
      <point x="450" y="500" type="line" smooth="no"/>
      <point x="443" y="500" type="line" smooth="no"/>
      <point x="433" y="500" type="line" smooth="no"/>
      <point x="426" y="500" type="line" smooth="no"/>
      <point x="376" y="500" type="line" smooth="no"/>
      <point x="376" y="376" type="line" smooth="no"/>
      <point x="326" y="376" type="line" smooth="no"/>
      <point x="313" y="376" type="line" smooth="no"/>
      <point x="270" y="376" type="line" smooth="no"/>
      <point x="260" y="376" type="line" smooth="no"/>
      <point x="248" y="376" type="line" smooth="no"/>
      <point x="216" y="376" type="line" smooth="no"/>
      <point x="206" y="376" type="line" smooth="no"/>
      <point x="163" y="376" type="line" smooth="no"/>
      <point x="156" y="376" type="line" smooth="no"/>
      <point x="126" y="376" type="line" smooth="no"/>
      <point x="126" y="250" type="line" smooth="no"/>
      <point x="116" y="250" type="line" smooth="no"/>
      <point x="88" y="250" type="line" smooth="no"/>
      <point x="76" y="250" type="line" smooth="no"/>
      <point x="68" y="250" type="line" smooth="no"/>
      <point x="58" y="250" type="line" smooth="no"/>
      <point x="50" y="250" type="line" smooth="no"/>
      <point x="0" y="250" type="line" smooth="no"/>
      <point x="0" y="0" type="line" smooth="no"/>
      <point x="8" y="0" type="line" smooth="no"/>
      <point x="16" y="0" type="line" smooth="no"/>
      <point x="48" y="0" type="line" smooth="no"/>
      <point x="56" y="0" type="line" smooth="no"/>
      <point x="68" y="0" type="line" smooth="no"/>
      <point x="76" y="0" type="line" smooth="no"/>
      <point x="86" y="0" type="line" smooth="no"/>
      <point x="93" y="0" type="line" smooth="no"/>
      <point x="143" y="0" type="line" smooth="no"/>
      <point x="163" y="0" type="line" smooth="no"/>
      <point x="198" y="0" type="line" smooth="no"/>
      <point x="206" y="0" type="line" smooth="no"/>
      <point x="218" y="0" type="line" smooth="no"/>
      <point x="226" y="0" type="line" smooth="no"/>
      <point x="236" y="0" type="line" smooth="no"/>
      <point x="243" y="0" type="line" smooth="no"/>
      <point x="293" y="0" type="line" smooth="no"/>
      <point x="336" y="0" type="line" smooth="no"/>
      <point x="343" y="0" type="line" smooth="no"/>
      <point x="373" y="0" type="line" smooth="no"/>
      <point x="383" y="0" type="line" smooth="no"/>
      <point x="390" y="0" type="line" smooth="no"/>
      <point x="440" y="0" type="line" smooth="no"/>
      <point x="450" y="0" type="line" smooth="no"/>
      <point x="458" y="0" type="line" smooth="no"/>
      <point x="503" y="0" type="line" smooth="no"/>
      <point x="536" y="0" type="line" smooth="no"/>
      <point x="546" y="0" type="line" smooth="no"/>
      <point x="588" y="0" type="line" smooth="no"/>
      <point x="596" y="0" type="line" smooth="no"/>
      <point x="626" y="0" type="line" smooth="no"/>
      <point x="626" y="10" type="line" smooth="no"/>
      <point x="626" y="38" type="line" smooth="no"/>
      <point x="626" y="50" type="line" smooth="no"/>
      <point x="626" y="58" type="line" smooth="no"/>
      <point x="626" y="68" type="line" smooth="no"/>
      <point x="626" y="76" type="line" smooth="no"/>
      <point x="626" y="126" type="line" smooth="no"/>
      <point x="618" y="126" type="line" smooth="no"/>
      <point x="568" y="126" type="line" smooth="no"/>
      <point x="548" y="126" type="line" smooth="no"/>
      <point x="530" y="126" type="line" smooth="no"/>
      <point x="513" y="126" type="line" smooth="no"/>
      <point x="506" y="126" type="line" smooth="no"/>
      <point x="498" y="126" type="line" smooth="no"/>
      <point x="420" y="126" type="line" smooth="no"/>
      <point x="403" y="126" type="line" smooth="no"/>
      <point x="388" y="126" type="line" smooth="no"/>
      <point x="370" y="126" type="line" smooth="no"/>
      <point x="356" y="126" type="line" smooth="no"/>
      <point x="343" y="126" type="line" smooth="no"/>
      <point x="328" y="126" type="line" smooth="no"/>
      <point x="318" y="126" type="line" smooth="no"/>
      <point x="273" y="126" type="line" smooth="no"/>
      <point x="246" y="126" type="line" smooth="no"/>
      <point x="236" y="126" type="line" smooth="no"/>
      <point x="226" y="126" type="line" smooth="no"/>
      <point x="216" y="126" type="line" smooth="no"/>
      <point x="206" y="126" type="line" smooth="no"/>
      <point x="163" y="126" type="line" smooth="no"/>
      <point x="156" y="126" type="line" smooth="no"/>
      <point x="126" y="126" type="line" smooth="no"/>
      <point x="126" y="136" type="line" smooth="no"/>
      <point x="126" y="163" type="line" smooth="no"/>
      <point x="126" y="176" type="line" smooth="no"/>
      <point x="126" y="183" type="line" smooth="no"/>
      <point x="126" y="193" type="line" smooth="no"/>
      <point x="126" y="200" type="line" smooth="no"/>
      <point x="126" y="250" type="line" smooth="no"/>
      <point x="176" y="250" type="line" smooth="no"/>
      <point x="188" y="250" type="line" smooth="no"/>
      <point x="230" y="250" type="line" smooth="no"/>
      <point x="240" y="250" type="line" smooth="no"/>
      <point x="253" y="250" type="line" smooth="no"/>
      <point x="286" y="250" type="line" smooth="no"/>
      <point x="296" y="250" type="line" smooth="no"/>
      <point x="338" y="250" type="line" smooth="no"/>
      <point x="346" y="250" type="line" smooth="no"/>
      <point x="376" y="250" type="line" smooth="no"/>
      <point x="376" y="260" type="line" smooth="no"/>
      <point x="376" y="288" type="line" smooth="no"/>
      <point x="376" y="300" type="line" smooth="no"/>
      <point x="376" y="308" type="line" smooth="no"/>
      <point x="376" y="318" type="line" smooth="no"/>
      <point x="376" y="326" type="line" smooth="no"/>
      <point x="376" y="376" type="line" smooth="no"/>
      <point x="386" y="376" type="line" smooth="no"/>
      <point x="413" y="376" type="line" smooth="no"/>
      <point x="426" y="376" type="line" smooth="no"/>
      <point x="433" y="376" type="line" smooth="no"/>
      <point x="443" y="376" type="line" smooth="no"/>
      <point x="450" y="376" type="line" smooth="no"/>
      <point x="500" y="376" type="line" smooth="no"/>
      <point x="500" y="386" type="line" smooth="no"/>
      <point x="500" y="413" type="line" smooth="no"/>
      <point x="500" y="426" type="line" smooth="no"/>
      <point x="500" y="433" type="line" smooth="no"/>
      <point x="500" y="443" type="line" smooth="no"/>
      <point x="500" y="450" type="line" smooth="no"/>
      <point x="500" y="500" type="line" smooth="no"/>
      <point x="510" y="500" type="line" smooth="no"/>
      <point x="538" y="500" type="line" smooth="no"/>
      <point x="550" y="500" type="line" smooth="no"/>
      <point x="558" y="500" type="line" smooth="no"/>
      <point x="568" y="500" type="line" smooth="no"/>
      <point x="576" y="500" type="line" smooth="no"/>
      <point x="626" y="500" type="line" smooth="no"/>
      <point x="626" y="533" type="line" smooth="no"/>
      <point x="626" y="543" type="line" smooth="no"/>
      <point x="626" y="553" type="line" smooth="no"/>
      <point x="626" y="563" type="line" smooth="no"/>
      <point x="626" y="606" type="line" smooth="no"/>
      <point x="626" y="613" type="line" smooth="no"/>
      <point x="626" y="643" type="line" smooth="no"/>
      <point x="626" y="668" type="line" smooth="no"/>
      <point x="626" y="678" type="line" smooth="no"/>
      <point x="626" y="688" type="line" smooth="no"/>
      <point x="626" y="696" type="line" smooth="no"/>
      <point x="626" y="706" type="line" smooth="no"/>
      <point x="626" y="750" type="line" smooth="no"/>
      <point x="616" y="750" type="line" smooth="no"/>
      <point x="588" y="750" type="line" smooth="no"/>
      <point x="576" y="750" type="line" smooth="no"/>
      <point x="568" y="750" type="line" smooth="no"/>
      <point x="558" y="750" type="line" smooth="no"/>
      <point x="550" y="750" type="line" smooth="no"/>
      <point x="500" y="750" type="line" smooth="no"/>
      <point x="500" y="760" type="line" smooth="no"/>
      <point x="500" y="788" type="line" smooth="no"/>
      <point x="500" y="800" type="line" smooth="no"/>
      <point x="500" y="808" type="line" smooth="no"/>
      <point x="500" y="818" type="line" smooth="no"/>
      <point x="500" y="826" type="line" smooth="no"/>
      <point x="500" y="876" type="line" smooth="no"/>
      <point x="483" y="876" type="line" smooth="no"/>
      <point x="466" y="876" type="line" smooth="no"/>
      <point x="456" y="876" type="line" smooth="no"/>
      <point x="443" y="876" type="line" smooth="no"/>
      <point x="410" y="876" type="line" smooth="no"/>
      <point x="400" y="876" type="line" smooth="no"/>
      <point x="358" y="876" type="line" smooth="no"/>
      <point x="350" y="876" type="line" smooth="no"/>
      <point x="320" y="876" type="line" smooth="no"/>
      <point x="310" y="876" type="line" smooth="no"/>
      <point x="300" y="876" type="line" smooth="no"/>
      <point x="293" y="876" type="line" smooth="no"/>
      <point x="248" y="876" type="line" smooth="no"/>
      <point x="216" y="876" type="line" smooth="no"/>
      <point x="206" y="876" type="line" smooth="no"/>
      <point x="163" y="876" type="line" smooth="no"/>
      <point x="156" y="876" type="line" smooth="no"/>
      <point x="126" y="876" type="line" smooth="no"/>
    </contour>
  </outline>
</glyph>
<glyph name="three" format="1">
  <advance width="750"/>
  <unicode hex="0033"/>
  <outline>
    <contour>
      <point x="0" y="750" type="line" smooth="no"/>
      <point x="16" y="750" type="line" smooth="no"/>
      <point x="28" y="750" type="line" smooth="no"/>
      <point x="38" y="750" type="line" smooth="no"/>
      <point x="83" y="750" type="line" smooth="no"/>
      <point x="93" y="750" type="line" smooth="no"/>
      <point x="103" y="750" type="line" smooth="no"/>
      <point x="113" y="750" type="line" smooth="no"/>
      <point x="120" y="750" type="line" smooth="no"/>
      <point x="130" y="750" type="line" smooth="no"/>
      <point x="138" y="750" type="line" smooth="no"/>
      <point x="148" y="750" type="line" smooth="no"/>
      <point x="193" y="750" type="line" smooth="no"/>
      <point x="208" y="750" type="line" smooth="no"/>
      <point x="220" y="750" type="line" smooth="no"/>
      <point x="236" y="750" type="line" smooth="no"/>
      <point x="243" y="750" type="line" smooth="no"/>
      <point x="293" y="750" type="line" smooth="no"/>
      <point x="326" y="750" type="line" smooth="no"/>
      <point x="336" y="750" type="line" smooth="no"/>
      <point x="380" y="750" type="line" smooth="no"/>
      <point x="390" y="750" type="line" smooth="no"/>
      <point x="400" y="750" type="line" smooth="no"/>
      <point x="410" y="750" type="line" smooth="no"/>
      <point x="453" y="750" type="line" smooth="no"/>
      <point x="460" y="750" type="line" smooth="no"/>
      <point x="490" y="750" type="line" smooth="yes"/>
      <point x="501" y="750"/>
      <point x="500" y="740" type="qcurve" smooth="no"/>
      <point x="500" y="500" type="line" smooth="no"/>
      <point x="483" y="500" type="line" smooth="no"/>
      <point x="466" y="500" type="line" smooth="no"/>
      <point x="456" y="500" type="line" smooth="no"/>
      <point x="443" y="500" type="line" smooth="no"/>
      <point x="410" y="500" type="line" smooth="no"/>
      <point x="400" y="500" type="line" smooth="no"/>
      <point x="358" y="500" type="line" smooth="no"/>
      <point x="350" y="500" type="line" smooth="no"/>
      <point x="320" y="500" type="line" smooth="no"/>
      <point x="310" y="500" type="line" smooth="no"/>
      <point x="300" y="500" type="line" smooth="no"/>
      <point x="293" y="500" type="line" smooth="no"/>
      <point x="248" y="500" type="line" smooth="no"/>
      <point x="216" y="500" type="line" smooth="no"/>
      <point x="206" y="500" type="line" smooth="no"/>
      <point x="163" y="500" type="line" smooth="no"/>
      <point x="156" y="500" type="line" smooth="no"/>
      <point x="126" y="500" type="line" smooth="no"/>
      <point x="126" y="376" type="line" smooth="no"/>
      <point x="143" y="376" type="line" smooth="no"/>
      <point x="160" y="376" type="line" smooth="no"/>
      <point x="170" y="376" type="line" smooth="no"/>
      <point x="183" y="376" type="line" smooth="no"/>
      <point x="216" y="376" type="line" smooth="no"/>
      <point x="226" y="376" type="line" smooth="no"/>
      <point x="268" y="376" type="line" smooth="no"/>
      <point x="276" y="376" type="line" smooth="no"/>
      <point x="306" y="376" type="line" smooth="no"/>
      <point x="316" y="376" type="line" smooth="no"/>
      <point x="326" y="376" type="line" smooth="no"/>
      <point x="333" y="376" type="line" smooth="no"/>
      <point x="378" y="376" type="line" smooth="no"/>
      <point x="410" y="376" type="line" smooth="no"/>
      <point x="420" y="376" type="line" smooth="no"/>
      <point x="463" y="376" type="line" smooth="no"/>
      <point x="483" y="376" type="line" smooth="no"/>
      <point x="500" y="376" type="line" smooth="no"/>
      <point x="500" y="126" type="line" smooth="no"/>
      <point x="493" y="126" type="line" smooth="no"/>
      <point x="443" y="126" type="line" smooth="no"/>
      <point x="423" y="126" type="line" smooth="no"/>
      <point x="406" y="126" type="line" smooth="no"/>
      <point x="388" y="126" type="line" smooth="no"/>
      <point x="380" y="126" type="line" smooth="no"/>
      <point x="373" y="126" type="line" smooth="no"/>
      <point x="296" y="126" type="line" smooth="no"/>
      <point x="278" y="126" type="line" smooth="no"/>
      <point x="263" y="126" type="line" smooth="no"/>
      <point x="246" y="126" type="line" smooth="no"/>
      <point x="230" y="126" type="line" smooth="no"/>
      <point x="218" y="126" type="line" smooth="no"/>
      <point x="203" y="126" type="line" smooth="no"/>
      <point x="193" y="126" type="line" smooth="no"/>
      <point x="148" y="126" type="line" smooth="no"/>
      <point x="120" y="126" type="line" smooth="no"/>
      <point x="110" y="126" type="line" smooth="no"/>
      <point x="100" y="126" type="line" smooth="no"/>
      <point x="90" y="126" type="line" smooth="no"/>
      <point x="80" y="126" type="line" smooth="no"/>
      <point x="38" y="126" type="line" smooth="no"/>
      <point x="30" y="126" type="line" smooth="no"/>
      <point x="0" y="126" type="line" smooth="no"/>
      <point x="0" y="0" type="line" smooth="no"/>
      <point x="8" y="0" type="line" smooth="no"/>
      <point x="58" y="0" type="line" smooth="no"/>
      <point x="78" y="0" type="line" smooth="no"/>
      <point x="96" y="0" type="line" smooth="no"/>
      <point x="113" y="0" type="line" smooth="no"/>
      <point x="120" y="0" type="line" smooth="no"/>
      <point x="128" y="0" type="line" smooth="no"/>
      <point x="206" y="0" type="line" smooth="no"/>
      <point x="223" y="0" type="line" smooth="no"/>
      <point x="238" y="0" type="line" smooth="no"/>
      <point x="256" y="0" type="line" smooth="no"/>
      <point x="270" y="0" type="line" smooth="no"/>
      <point x="283" y="0" type="line" smooth="no"/>
      <point x="298" y="0" type="line" smooth="no"/>
      <point x="308" y="0" type="line" smooth="no"/>
      <point x="353" y="0" type="line" smooth="no"/>
      <point x="380" y="0" type="line" smooth="no"/>
      <point x="390" y="0" type="line" smooth="no"/>
      <point x="400" y="0" type="line" smooth="no"/>
      <point x="410" y="0" type="line" smooth="no"/>
      <point x="420" y="0" type="line" smooth="no"/>
      <point x="463" y="0" type="line" smooth="no"/>
      <point x="483" y="0" type="line" smooth="no"/>
      <point x="500" y="0" type="line" smooth="no"/>
      <point x="500" y="10" type="line" smooth="no"/>
      <point x="500" y="38" type="line" smooth="no"/>
      <point x="500" y="50" type="line" smooth="no"/>
      <point x="500" y="58" type="line" smooth="no"/>
      <point x="500" y="68" type="line" smooth="no"/>
      <point x="500" y="76" type="line" smooth="no"/>
      <point x="500" y="126" type="line" smooth="no"/>
      <point x="510" y="126" type="line" smooth="no"/>
      <point x="538" y="126" type="line" smooth="no"/>
      <point x="550" y="126" type="line" smooth="no"/>
      <point x="558" y="126" type="line" smooth="no"/>
      <point x="568" y="126" type="line" smooth="no"/>
      <point x="576" y="126" type="line" smooth="no"/>
      <point x="626" y="126" type="line" smooth="no"/>
      <point x="626" y="158" type="line" smooth="no"/>
      <point x="626" y="168" type="line" smooth="no"/>
      <point x="626" y="178" type="line" smooth="no"/>
      <point x="626" y="188" type="line" smooth="no"/>
      <point x="626" y="230" type="line" smooth="no"/>
      <point x="626" y="238" type="line" smooth="no"/>
      <point x="626" y="268" type="line" smooth="no"/>
      <point x="626" y="293" type="line" smooth="no"/>
      <point x="626" y="303" type="line" smooth="no"/>
      <point x="626" y="313" type="line" smooth="no"/>
      <point x="626" y="320" type="line" smooth="no"/>
      <point x="626" y="330" type="line" smooth="no"/>
      <point x="626" y="376" type="line" smooth="no"/>
      <point x="616" y="376" type="line" smooth="no"/>
      <point x="588" y="376" type="line" smooth="no"/>
      <point x="576" y="376" type="line" smooth="no"/>
      <point x="568" y="376" type="line" smooth="no"/>
      <point x="558" y="376" type="line" smooth="no"/>
      <point x="550" y="376" type="line" smooth="no"/>
      <point x="500" y="376" type="line" smooth="no"/>
      <point x="500" y="386" type="line" smooth="no"/>
      <point x="500" y="413" type="line" smooth="no"/>
      <point x="500" y="426" type="line" smooth="no"/>
      <point x="500" y="433" type="line" smooth="no"/>
      <point x="500" y="443" type="line" smooth="no"/>
      <point x="500" y="450" type="line" smooth="no"/>
      <point x="500" y="500" type="line" smooth="no"/>
      <point x="510" y="500" type="line" smooth="no"/>
      <point x="538" y="500" type="line" smooth="no"/>
      <point x="550" y="500" type="line" smooth="no"/>
      <point x="558" y="500" type="line" smooth="no"/>
      <point x="568" y="500" type="line" smooth="no"/>
      <point x="576" y="500" type="line" smooth="no"/>
      <point x="626" y="500" type="line" smooth="no"/>
      <point x="626" y="550" type="line" smooth="no"/>
      <point x="626" y="563" type="line" smooth="no"/>
      <point x="626" y="606" type="line" smooth="no"/>
      <point x="626" y="616" type="line" smooth="no"/>
      <point x="626" y="628" type="line" smooth="no"/>
      <point x="626" y="660" type="line" smooth="no"/>
      <point x="626" y="670" type="line" smooth="no"/>
      <point x="626" y="713" type="line" smooth="no"/>
      <point x="626" y="720" type="line" smooth="no"/>
      <point x="626" y="750" type="line" smooth="no"/>
      <point x="616" y="750" type="line" smooth="no"/>
      <point x="588" y="750" type="line" smooth="no"/>
      <point x="576" y="750" type="line" smooth="no"/>
      <point x="568" y="750" type="line" smooth="no"/>
      <point x="558" y="750" type="line" smooth="no"/>
      <point x="550" y="750" type="line" smooth="no"/>
      <point x="500" y="750" type="line" smooth="no"/>
      <point x="500" y="760" type="line" smooth="no"/>
      <point x="500" y="788" type="line" smooth="no"/>
      <point x="500" y="800" type="line" smooth="no"/>
      <point x="500" y="808" type="line" smooth="no"/>
      <point x="500" y="818" type="line" smooth="no"/>
      <point x="500" y="826" type="line" smooth="no"/>
      <point x="500" y="876" type="line" smooth="no"/>
      <point x="493" y="876" type="line" smooth="no"/>
      <point x="443" y="876" type="line" smooth="no"/>
      <point x="423" y="876" type="line" smooth="no"/>
      <point x="406" y="876" type="line" smooth="no"/>
      <point x="388" y="876" type="line" smooth="no"/>
      <point x="380" y="876" type="line" smooth="no"/>
      <point x="373" y="876" type="line" smooth="no"/>
      <point x="296" y="876" type="line" smooth="no"/>
      <point x="278" y="876" type="line" smooth="no"/>
      <point x="263" y="876" type="line" smooth="no"/>
      <point x="246" y="876" type="line" smooth="no"/>
      <point x="230" y="876" type="line" smooth="no"/>
      <point x="218" y="876" type="line" smooth="no"/>
      <point x="203" y="876" type="line" smooth="no"/>
      <point x="193" y="876" type="line" smooth="no"/>
      <point x="148" y="876" type="line" smooth="no"/>
      <point x="120" y="876" type="line" smooth="no"/>
      <point x="110" y="876" type="line" smooth="no"/>
      <point x="100" y="876" type="line" smooth="no"/>
      <point x="90" y="876" type="line" smooth="no"/>
      <point x="80" y="876" type="line" smooth="no"/>
      <point x="38" y="876" type="line" smooth="no"/>
      <point x="30" y="876" type="line" smooth="no"/>
      <point x="0" y="876" type="line" smooth="no"/>
    </contour>
  </outline>
</glyph>
<glyph name="four" format="1">
  <advance width="750"/>
  <unicode hex="0034"/>
  <outline>
    <contour>
      <point x="0" y="376" type="line" smooth="no"/>
      <point x="500" y="376" type="line" smooth="no"/>
      <point x="500" y="0" type="line" smooth="no"/>
      <point x="626" y="0" type="line" smooth="no"/>
      <point x="626" y="876" type="line" smooth="no"/>
      <point x="500" y="876" type="line" smooth="no"/>
      <point x="500" y="500" type="line" smooth="no"/>
      <point x="126" y="500" type="line" smooth="no"/>
      <point x="126" y="875" type="line" smooth="no"/>
      <point x="0" y="875" type="line" smooth="no"/>
    </contour>
  </outline>
</glyph>
<glyph name="five" format="1">
  <advance width="750"/>
  <unicode hex="0035"/>
  <outline>
    <contour>
      <point x="0" y="376" type="line" smooth="no"/>
      <point x="8" y="376" type="line" smooth="no"/>
      <point x="58" y="376" type="line" smooth="no"/>
      <point x="78" y="376" type="line" smooth="no"/>
      <point x="96" y="376" type="line" smooth="no"/>
      <point x="113" y="376" type="line" smooth="no"/>
      <point x="120" y="376" type="line" smooth="no"/>
      <point x="128" y="376" type="line" smooth="no"/>
      <point x="206" y="376" type="line" smooth="no"/>
      <point x="223" y="376" type="line" smooth="no"/>
      <point x="238" y="376" type="line" smooth="no"/>
      <point x="256" y="376" type="line" smooth="no"/>
      <point x="270" y="376" type="line" smooth="no"/>
      <point x="283" y="376" type="line" smooth="no"/>
      <point x="298" y="376" type="line" smooth="no"/>
      <point x="308" y="376" type="line" smooth="no"/>
      <point x="353" y="376" type="line" smooth="no"/>
      <point x="380" y="376" type="line" smooth="no"/>
      <point x="390" y="376" type="line" smooth="no"/>
      <point x="400" y="376" type="line" smooth="no"/>
      <point x="410" y="376" type="line" smooth="no"/>
      <point x="420" y="376" type="line" smooth="no"/>
      <point x="463" y="376" type="line" smooth="no"/>
      <point x="483" y="376" type="line" smooth="no"/>
      <point x="500" y="376" type="line" smooth="no"/>
      <point x="500" y="133" type="line" smooth="no"/>
      <point x="498" y="124"/>
      <point x="488" y="126" type="qcurve" smooth="no"/>
      <point x="468" y="126" type="line" smooth="no"/>
      <point x="446" y="126" type="line" smooth="no"/>
      <point x="426" y="126" type="line" smooth="no"/>
      <point x="418" y="126" type="line" smooth="no"/>
      <point x="410" y="126" type="line" smooth="no"/>
      <point x="333" y="126" type="line" smooth="no"/>
      <point x="290" y="126" type="line" smooth="no"/>
      <point x="283" y="126" type="line" smooth="no"/>
      <point x="253" y="126" type="line" smooth="no"/>
      <point x="243" y="126" type="line" smooth="no"/>
      <point x="236" y="126" type="line" smooth="no"/>
      <point x="186" y="126" type="line" smooth="no"/>
      <point x="176" y="126" type="line" smooth="no"/>
      <point x="168" y="126" type="line" smooth="no"/>
      <point x="123" y="126" type="line" smooth="no"/>
      <point x="90" y="126" type="line" smooth="no"/>
      <point x="80" y="126" type="line" smooth="no"/>
      <point x="38" y="126" type="line" smooth="no"/>
      <point x="30" y="126" type="line" smooth="no"/>
      <point x="0" y="126" type="line" smooth="no"/>
      <point x="0" y="0" type="line" smooth="no"/>
      <point x="8" y="0" type="line" smooth="no"/>
      <point x="58" y="0" type="line" smooth="no"/>
      <point x="78" y="0" type="line" smooth="no"/>
      <point x="96" y="0" type="line" smooth="no"/>
      <point x="113" y="0" type="line" smooth="no"/>
      <point x="120" y="0" type="line" smooth="no"/>
      <point x="128" y="0" type="line" smooth="no"/>
      <point x="206" y="0" type="line" smooth="no"/>
      <point x="223" y="0" type="line" smooth="no"/>
      <point x="238" y="0" type="line" smooth="no"/>
      <point x="256" y="0" type="line" smooth="no"/>
      <point x="270" y="0" type="line" smooth="no"/>
      <point x="283" y="0" type="line" smooth="no"/>
      <point x="298" y="0" type="line" smooth="no"/>
      <point x="308" y="0" type="line" smooth="no"/>
      <point x="353" y="0" type="line" smooth="no"/>
      <point x="380" y="0" type="line" smooth="no"/>
      <point x="390" y="0" type="line" smooth="no"/>
      <point x="400" y="0" type="line" smooth="no"/>
      <point x="410" y="0" type="line" smooth="no"/>
      <point x="420" y="0" type="line" smooth="no"/>
      <point x="463" y="0" type="line" smooth="no"/>
      <point x="483" y="0" type="line" smooth="no"/>
      <point x="500" y="0" type="line" smooth="no"/>
      <point x="500" y="10" type="line" smooth="no"/>
      <point x="500" y="38" type="line" smooth="no"/>
      <point x="500" y="50" type="line" smooth="no"/>
      <point x="500" y="58" type="line" smooth="no"/>
      <point x="500" y="68" type="line" smooth="no"/>
      <point x="500" y="76" type="line" smooth="no"/>
      <point x="500" y="126" type="line" smooth="no"/>
      <point x="510" y="126" type="line" smooth="no"/>
      <point x="538" y="126" type="line" smooth="no"/>
      <point x="550" y="126" type="line" smooth="no"/>
      <point x="558" y="126" type="line" smooth="no"/>
      <point x="568" y="126" type="line" smooth="no"/>
      <point x="576" y="126" type="line" smooth="no"/>
      <point x="626" y="126" type="line" smooth="no"/>
      <point x="626" y="168" type="line" smooth="no"/>
      <point x="626" y="178" type="line" smooth="no"/>
      <point x="626" y="190" type="line" smooth="no"/>
      <point x="626" y="223" type="line" smooth="no"/>
      <point x="626" y="233" type="line" smooth="no"/>
      <point x="626" y="276" type="line" smooth="no"/>
      <point x="626" y="283" type="line" smooth="no"/>
      <point x="626" y="313" type="line" smooth="no"/>
      <point x="626" y="320" type="line" smooth="no"/>
      <point x="626" y="330" type="line" smooth="no"/>
      <point x="626" y="376" type="line" smooth="no"/>
      <point x="616" y="376" type="line" smooth="no"/>
      <point x="588" y="376" type="line" smooth="no"/>
      <point x="576" y="376" type="line" smooth="no"/>
      <point x="568" y="376" type="line" smooth="no"/>
      <point x="558" y="376" type="line" smooth="no"/>
      <point x="550" y="376" type="line" smooth="no"/>
      <point x="500" y="376" type="line" smooth="no"/>
      <point x="500" y="386" type="line" smooth="no"/>
      <point x="500" y="413" type="line" smooth="no"/>
      <point x="500" y="426" type="line" smooth="no"/>
      <point x="500" y="433" type="line" smooth="no"/>
      <point x="500" y="443" type="line" smooth="no"/>
      <point x="500" y="450" type="line" smooth="no"/>
      <point x="500" y="500" type="line" smooth="no"/>
      <point x="483" y="500" type="line" smooth="no"/>
      <point x="466" y="500" type="line" smooth="no"/>
      <point x="456" y="500" type="line" smooth="no"/>
      <point x="443" y="500" type="line" smooth="no"/>
      <point x="410" y="500" type="line" smooth="no"/>
      <point x="400" y="500" type="line" smooth="no"/>
      <point x="358" y="500" type="line" smooth="no"/>
      <point x="350" y="500" type="line" smooth="no"/>
      <point x="320" y="500" type="line" smooth="no"/>
      <point x="310" y="500" type="line" smooth="no"/>
      <point x="300" y="500" type="line" smooth="no"/>
      <point x="293" y="500" type="line" smooth="no"/>
      <point x="248" y="500" type="line" smooth="no"/>
      <point x="216" y="500" type="line" smooth="no"/>
      <point x="206" y="500" type="line" smooth="no"/>
      <point x="163" y="500" type="line" smooth="no"/>
      <point x="156" y="500" type="line" smooth="no"/>
      <point x="126" y="500" type="line" smooth="no"/>
      <point x="126" y="516" type="line" smooth="no"/>
      <point x="126" y="548" type="line" smooth="no"/>
      <point x="126" y="558" type="line" smooth="no"/>
      <point x="126" y="603" type="line" smooth="no"/>
      <point x="126" y="630" type="line" smooth="no"/>
      <point x="126" y="640" type="line" smooth="no"/>
      <point x="126" y="650" type="line" smooth="no"/>
      <point x="126" y="660" type="line" smooth="no"/>
      <point x="126" y="670" type="line" smooth="no"/>
      <point x="126" y="713" type="line" smooth="no"/>
      <point x="126" y="720" type="line" smooth="no"/>
      <point x="126" y="750" type="line" smooth="no"/>
      <point x="143" y="750" type="line" smooth="no"/>
      <point x="160" y="750" type="line" smooth="no"/>
      <point x="170" y="750" type="line" smooth="no"/>
      <point x="183" y="750" type="line" smooth="no"/>
      <point x="216" y="750" type="line" smooth="no"/>
      <point x="226" y="750" type="line" smooth="no"/>
      <point x="268" y="750" type="line" smooth="no"/>
      <point x="276" y="750" type="line" smooth="no"/>
      <point x="306" y="750" type="line" smooth="no"/>
      <point x="316" y="750" type="line" smooth="no"/>
      <point x="326" y="750" type="line" smooth="no"/>
      <point x="333" y="750" type="line" smooth="no"/>
      <point x="378" y="750" type="line" smooth="no"/>
      <point x="410" y="750" type="line" smooth="no"/>
      <point x="420" y="750" type="line" smooth="no"/>
      <point x="463" y="750" type="line" smooth="no"/>
      <point x="483" y="750" type="line" smooth="no"/>
      <point x="500" y="750" type="line" smooth="no"/>
      <point x="500" y="760" type="line" smooth="no"/>
      <point x="500" y="788" type="line" smooth="no"/>
      <point x="500" y="800" type="line" smooth="no"/>
      <point x="500" y="808" type="line" smooth="no"/>
      <point x="500" y="818" type="line" smooth="no"/>
      <point x="500" y="826" type="line" smooth="no"/>
      <point x="500" y="876" type="line" smooth="no"/>
      <point x="493" y="876" type="line" smooth="no"/>
      <point x="443" y="876" type="line" smooth="no"/>
      <point x="423" y="876" type="line" smooth="no"/>
      <point x="406" y="876" type="line" smooth="no"/>
      <point x="388" y="876" type="line" smooth="no"/>
      <point x="380" y="876" type="line" smooth="no"/>
      <point x="373" y="876" type="line" smooth="no"/>
      <point x="296" y="876" type="line" smooth="no"/>
      <point x="278" y="876" type="line" smooth="no"/>
      <point x="263" y="876" type="line" smooth="no"/>
      <point x="246" y="876" type="line" smooth="no"/>
      <point x="230" y="876" type="line" smooth="no"/>
      <point x="218" y="876" type="line" smooth="no"/>
      <point x="203" y="876" type="line" smooth="no"/>
      <point x="193" y="876" type="line" smooth="no"/>
      <point x="148" y="876" type="line" smooth="no"/>
      <point x="120" y="876" type="line" smooth="no"/>
      <point x="110" y="876" type="line" smooth="no"/>
      <point x="100" y="876" type="line" smooth="no"/>
      <point x="90" y="876" type="line" smooth="no"/>
      <point x="80" y="876" type="line" smooth="no"/>
      <point x="38" y="876" type="line" smooth="no"/>
      <point x="30" y="876" type="line" smooth="no"/>
      <point x="0" y="876" type="line" smooth="no"/>
    </contour>
  </outline>
</glyph>
<glyph name="six" format="1">
  <advance width="750"/>
  <unicode hex="0036"/>
  <outline>
    <contour>
      <point x="125" y="750" type="line" smooth="no"/>
      <point x="0" y="750" type="line" smooth="no"/>
      <point x="0" y="124" type="line" smooth="no"/>
      <point x="125" y="124" type="line" smooth="no"/>
      <point x="125" y="0" type="line" smooth="no"/>
      <point x="500" y="0" type="line" smooth="no"/>
      <point x="500" y="124" type="line" smooth="no"/>
      <point x="625" y="124" type="line" smooth="no"/>
      <point x="625" y="501" type="line" smooth="no"/>
      <point x="500" y="501" type="line" smooth="no"/>
      <point x="500" y="625" type="line" smooth="no"/>
      <point x="125" y="625" type="line" smooth="no"/>
      <point x="125" y="750" type="line" smooth="no"/>
      <point x="500" y="750" type="line" smooth="no"/>
      <point x="500" y="875" type="line" smooth="no"/>
      <point x="125" y="875" type="line" smooth="no"/>
    </contour>
    <contour>
      <point x="500" y="499" type="line" smooth="no"/>
      <point x="500" y="126" type="line" smooth="no"/>
      <point x="125" y="126" type="line" smooth="no"/>
      <point x="125" y="499" type="line" smooth="no"/>
    </contour>
  </outline>
</glyph>
<glyph name="seven" format="1">
  <advance width="750"/>
  <unicode hex="0037"/>
  <outline>
    <contour>
      <point x="0" y="750" type="line" smooth="no"/>
      <point x="8" y="750" type="line" smooth="no"/>
      <point x="58" y="750" type="line" smooth="no"/>
      <point x="78" y="750" type="line" smooth="no"/>
      <point x="96" y="750" type="line" smooth="no"/>
      <point x="113" y="750" type="line" smooth="no"/>
      <point x="120" y="750" type="line" smooth="no"/>
      <point x="128" y="750" type="line" smooth="no"/>
      <point x="206" y="750" type="line" smooth="no"/>
      <point x="223" y="750" type="line" smooth="no"/>
      <point x="238" y="750" type="line" smooth="no"/>
      <point x="256" y="750" type="line" smooth="no"/>
      <point x="270" y="750" type="line" smooth="no"/>
      <point x="283" y="750" type="line" smooth="no"/>
      <point x="298" y="750" type="line" smooth="no"/>
      <point x="308" y="750" type="line" smooth="no"/>
      <point x="353" y="750" type="line" smooth="no"/>
      <point x="380" y="750" type="line" smooth="no"/>
      <point x="390" y="750" type="line" smooth="no"/>
      <point x="400" y="750" type="line" smooth="no"/>
      <point x="410" y="750" type="line" smooth="no"/>
      <point x="420" y="750" type="line" smooth="no"/>
      <point x="463" y="750" type="line" smooth="no"/>
      <point x="483" y="750" type="line" smooth="no"/>
      <point x="500" y="750" type="line" smooth="no"/>
      <point x="500" y="500" type="line" smooth="no"/>
      <point x="490" y="500" type="line" smooth="no"/>
      <point x="463" y="500" type="line" smooth="no"/>
      <point x="450" y="500" type="line" smooth="no"/>
      <point x="443" y="500" type="line" smooth="no"/>
      <point x="433" y="500" type="line" smooth="no"/>
      <point x="426" y="500" type="line" smooth="no"/>
      <point x="376" y="500" type="line" smooth="no"/>
      <point x="376" y="250" type="line" smooth="no"/>
      <point x="366" y="250" type="line" smooth="no"/>
      <point x="338" y="250" type="line" smooth="no"/>
      <point x="326" y="250" type="line" smooth="no"/>
      <point x="318" y="250" type="line" smooth="no"/>
      <point x="308" y="250" type="line" smooth="no"/>
      <point x="300" y="250" type="line" smooth="no"/>
      <point x="250" y="250" type="line" smooth="no"/>
      <point x="250" y="0" type="line" smooth="no"/>
      <point x="260" y="0" type="line" smooth="no"/>
      <point x="288" y="0" type="line" smooth="no"/>
      <point x="300" y="0" type="line" smooth="no"/>
      <point x="308" y="0" type="line" smooth="no"/>
      <point x="318" y="0" type="line" smooth="no"/>
      <point x="326" y="0" type="line" smooth="no"/>
      <point x="376" y="0" type="line" smooth="no"/>
      <point x="376" y="50" type="line" smooth="no"/>
      <point x="376" y="63" type="line" smooth="no"/>
      <point x="376" y="106" type="line" smooth="no"/>
      <point x="376" y="116" type="line" smooth="no"/>
      <point x="376" y="128" type="line" smooth="no"/>
      <point x="376" y="160" type="line" smooth="no"/>
      <point x="376" y="170" type="line" smooth="no"/>
      <point x="376" y="213" type="line" smooth="no"/>
      <point x="376" y="220" type="line" smooth="no"/>
      <point x="376" y="250" type="line" smooth="no"/>
      <point x="386" y="250" type="line" smooth="no"/>
      <point x="413" y="250" type="line" smooth="no"/>
      <point x="426" y="250" type="line" smooth="no"/>
      <point x="433" y="250" type="line" smooth="no"/>
      <point x="443" y="250" type="line" smooth="no"/>
      <point x="450" y="250" type="line" smooth="no"/>
      <point x="500" y="250" type="line" smooth="no"/>
      <point x="500" y="300" type="line" smooth="no"/>
      <point x="500" y="313" type="line" smooth="no"/>
      <point x="500" y="356" type="line" smooth="no"/>
      <point x="500" y="366" type="line" smooth="no"/>
      <point x="500" y="378" type="line" smooth="no"/>
      <point x="500" y="410" type="line" smooth="no"/>
      <point x="500" y="420" type="line" smooth="no"/>
      <point x="500" y="463" type="line" smooth="no"/>
      <point x="500" y="470" type="line" smooth="no"/>
      <point x="500" y="500" type="line" smooth="no"/>
      <point x="510" y="500" type="line" smooth="no"/>
      <point x="538" y="500" type="line" smooth="no"/>
      <point x="550" y="500" type="line" smooth="no"/>
      <point x="558" y="500" type="line" smooth="no"/>
      <point x="568" y="500" type="line" smooth="no"/>
      <point x="576" y="500" type="line" smooth="no"/>
      <point x="626" y="500" type="line" smooth="no"/>
      <point x="626" y="518" type="line" smooth="no"/>
      <point x="626" y="536" type="line" smooth="no"/>
      <point x="626" y="546" type="line" smooth="no"/>
      <point x="626" y="558" type="line" smooth="no"/>
      <point x="626" y="590" type="line" smooth="no"/>
      <point x="626" y="600" type="line" smooth="no"/>
      <point x="626" y="643" type="line" smooth="no"/>
      <point x="626" y="650" type="line" smooth="no"/>
      <point x="626" y="680" type="line" smooth="no"/>
      <point x="626" y="690" type="line" smooth="no"/>
      <point x="626" y="700" type="line" smooth="no"/>
      <point x="626" y="708" type="line" smooth="no"/>
      <point x="626" y="753" type="line" smooth="no"/>
      <point x="626" y="786" type="line" smooth="no"/>
      <point x="626" y="796" type="line" smooth="no"/>
      <point x="626" y="838" type="line" smooth="no"/>
      <point x="626" y="846" type="line" smooth="no"/>
      <point x="626" y="876" type="line" smooth="no"/>
      <point x="618" y="876" type="line" smooth="no"/>
      <point x="610" y="876" type="line" smooth="no"/>
      <point x="578" y="876" type="line" smooth="no"/>
      <point x="570" y="876" type="line" smooth="no"/>
      <point x="558" y="876" type="line" smooth="no"/>
      <point x="550" y="876" type="line" smooth="no"/>
      <point x="540" y="876" type="line" smooth="no"/>
      <point x="533" y="876" type="line" smooth="no"/>
      <point x="483" y="876" type="line" smooth="no"/>
      <point x="463" y="876" type="line" smooth="no"/>
      <point x="428" y="876" type="line" smooth="no"/>
      <point x="420" y="876" type="line" smooth="no"/>
      <point x="408" y="876" type="line" smooth="no"/>
      <point x="400" y="876" type="line" smooth="no"/>
      <point x="390" y="876" type="line" smooth="no"/>
      <point x="383" y="876" type="line" smooth="no"/>
      <point x="333" y="876" type="line" smooth="no"/>
      <point x="290" y="876" type="line" smooth="no"/>
      <point x="283" y="876" type="line" smooth="no"/>
      <point x="253" y="876" type="line" smooth="no"/>
      <point x="243" y="876" type="line" smooth="no"/>
      <point x="236" y="876" type="line" smooth="no"/>
      <point x="186" y="876" type="line" smooth="no"/>
      <point x="176" y="876" type="line" smooth="no"/>
      <point x="168" y="876" type="line" smooth="no"/>
      <point x="123" y="876" type="line" smooth="no"/>
      <point x="90" y="876" type="line" smooth="no"/>
      <point x="80" y="876" type="line" smooth="no"/>
      <point x="38" y="876" type="line" smooth="no"/>
      <point x="30" y="876" type="line" smooth="no"/>
      <point x="0" y="876" type="line" smooth="no"/>
    </contour>
  </outline>
</glyph>
<glyph name="nine" format="1">
  <advance width="750"/>
  <unicode hex="0039"/>
  <outline>
    <contour>
      <point x="500" y="124" type="line" smooth="no"/>
      <point x="625" y="124" type="line" smooth="no"/>
      <point x="625" y="750" type="line" smooth="no"/>
      <point x="500" y="750" type="line" smooth="no"/>
      <point x="500" y="874" type="line" smooth="no"/>
      <point x="125" y="874" type="line" smooth="no"/>
      <point x="125" y="750" type="line" smooth="no"/>
      <point x="0" y="750" type="line" smooth="no"/>
      <point x="0" y="373" type="line" smooth="no"/>
      <point x="125" y="373" type="line" smooth="no"/>
      <point x="125" y="249" type="line" smooth="no"/>
      <point x="500" y="249" type="line" smooth="no"/>
      <point x="500" y="124" type="line" smooth="no"/>
      <point x="125" y="124" type="line" smooth="no"/>
      <point x="125" y="-1" type="line" smooth="no"/>
      <point x="500" y="-1" type="line" smooth="no"/>
    </contour>
    <contour>
      <point x="125" y="375" type="line" smooth="no"/>
      <point x="125" y="748" type="line" smooth="no"/>
      <point x="500" y="748" type="line" smooth="no"/>
      <point x="500" y="375" type="line" smooth="no"/>
    </contour>
  </outline>
</glyph>
<glyph name="semicolon" format="1">
  <advance width="375"/>
  <unicode hex="003b"/>
  <outline>
    <contour>
      <point x="126" y="500" type="line" smooth="no"/>
      <point x="251" y="500" type="line" smooth="no"/>
      <point x="251" y="625" type="line" smooth="no"/>
      <point x="126" y="625" type="line" smooth="no"/>
    </contour>
    <contour>
      <point x="126" y="-125" type="line" smooth="no"/>
      <point x="1" y="-125" type="line" smooth="no"/>
      <point x="1" y="-250" type="line" smooth="no"/>
      <point x="126" y="-250" type="line" smooth="no"/>
      <point x="126" y="-125" type="line" smooth="no"/>
      <point x="251" y="-125" type="line" smooth="no"/>
      <point x="251" y="125" type="line" smooth="no"/>
      <point x="126" y="125" type="line" smooth="no"/>
    </contour>
  </outline>
</glyph>
<glyph name="less" format="1">
  <advance width="500"/>
  <unicode hex="003c"/>
  <outline>
    <contour>
      <point x="250" y="500" type="line" smooth="no"/>
      <point x="125" y="500" type="line" smooth="no"/>
      <point x="125" y="375" type="line" smooth="no"/>
      <point x="0" y="375" type="line" smooth="no"/>
      <point x="0" y="250" type="line" smooth="no"/>
      <point x="125" y="250" type="line" smooth="no"/>
      <point x="125" y="125" type="line" smooth="no"/>
      <point x="250" y="125" type="line" smooth="no"/>
      <point x="250" y="0" type="line" smooth="no"/>
      <point x="375" y="0" type="line" smooth="no"/>
      <point x="375" y="125" type="line" smooth="no"/>
      <point x="250" y="125" type="line" smooth="no"/>
      <point x="250" y="250" type="line" smooth="no"/>
      <point x="125" y="250" type="line" smooth="no"/>
      <point x="125" y="375" type="line" smooth="no"/>
      <point x="250" y="375" type="line" smooth="no"/>
      <point x="250" y="500" type="line" smooth="no"/>
      <point x="375" y="500" type="line" smooth="no"/>
      <point x="375" y="625" type="line" smooth="no"/>
      <point x="250" y="625" type="line" smooth="no"/>
    </contour>
  </outline>
</glyph>
<glyph name="equal" format="1">
  <advance width="625"/>
  <unicode hex="003d"/>
  <outline>
    <contour>
      <point x="0" y="500" type="line" smooth="no"/>
      <point x="500" y="500" type="line" smooth="no"/>
      <point x="500" y="625" type="line" smooth="no"/>
      <point x="0" y="625" type="line" smooth="no"/>
    </contour>
    <contour>
      <point x="0" y="250" type="line" smooth="no"/>
      <point x="500" y="250" type="line" smooth="no"/>
      <point x="500" y="375" type="line" smooth="no"/>
      <point x="0" y="375" type="line" smooth="no"/>
    </contour>
  </outline>
</glyph>
<glyph name="question" format="1">
  <advance width="750"/>
  <unicode hex="003f"/>
  <outline>
    <contour>
      <point x="125" y="750" type="line" smooth="no"/>
      <point x="0" y="750" type="line" smooth="no"/>
      <point x="0" y="625" type="line" smooth="no"/>
      <point x="125" y="625" type="line" smooth="no"/>
      <point x="125" y="750" type="line" smooth="no"/>
      <point x="500" y="750" type="line" smooth="no"/>
      <point x="500" y="500" type="line" smooth="no"/>
      <point x="375" y="500" type="line" smooth="no"/>
      <point x="375" y="375" type="line" smooth="no"/>
      <point x="250" y="375" type="line" smooth="no"/>
      <point x="250" y="250" type="line" smooth="no"/>
      <point x="375" y="250" type="line" smooth="no"/>
      <point x="375" y="375" type="line" smooth="no"/>
      <point x="500" y="375" type="line" smooth="no"/>
      <point x="500" y="500" type="line" smooth="no"/>
      <point x="625" y="500" type="line" smooth="no"/>
      <point x="625" y="750" type="line" smooth="no"/>
      <point x="500" y="750" type="line" smooth="no"/>
      <point x="500" y="875" type="line" smooth="no"/>
      <point x="125" y="875" type="line" smooth="no"/>
    </contour>
    <contour>
      <point x="250" y="0" type="line" smooth="no"/>
      <point x="375" y="0" type="line" smooth="no"/>
      <point x="375" y="125" type="line" smooth="no"/>
      <point x="250" y="125" type="line" smooth="no"/>
    </contour>
  </outline>
</glyph>
<glyph name="at" format="1">
  <advance width="750"/>
  <unicode hex="0040"/>
  <outline>
    <contour>
      <point x="125" y="750" type="line" smooth="no"/>
      <point x="0" y="750" type="line" smooth="no"/>
      <point x="0" y="125" type="line" smooth="no"/>
      <point x="125" y="125" type="line" smooth="no"/>
      <point x="125" y="0" type="line" smooth="no"/>
      <point x="625" y="0" type="line" smooth="no"/>
      <point x="625" y="125" type="line" smooth="no"/>
      <point x="125" y="125" type="line" smooth="no"/>
      <point x="125" y="750" type="line" smooth="no"/>
      <point x="500" y="750" type="line" smooth="no"/>
      <point x="500" y="625" type="line" smooth="no"/>
      <point x="250" y="625" type="line" smooth="no"/>
      <point x="250" y="250" type="line" smooth="no"/>
      <point x="625" y="250" type="line" smooth="no"/>
      <point x="625" y="750" type="line" smooth="no"/>
      <point x="500" y="750" type="line" smooth="no"/>
      <point x="500" y="875" type="line" smooth="no"/>
      <point x="125" y="875" type="line" smooth="no"/>
    </contour>
    <contour>
      <point x="500" y="500" type="line" smooth="no"/>
      <point x="500" y="375" type="line" smooth="no"/>
      <point x="375" y="375" type="line" smooth="no"/>
      <point x="375" y="500" type="line" smooth="no"/>
    </contour>
  </outline>
</glyph>
<glyph name="B" format="1">
  <advance width="750"/>
  <unicode hex="0042"/>
  <outline>
    <contour>
      <point x="0" y="0" type="line" smooth="no"/>
      <point x="500" y="0" type="line" smooth="no"/>
      <point x="500" y="124" type="line" smooth="no"/>
      <point x="625" y="124" type="line" smooth="no"/>
      <point x="625" y="376" type="line" smooth="no"/>
      <point x="500" y="376" type="line" smooth="no"/>
      <point x="500" y="499" type="line" smooth="no"/>
      <point x="625" y="499" type="line" smooth="no"/>
      <point x="625" y="751" type="line" smooth="no"/>
      <point x="500" y="751" type="line" smooth="no"/>
      <point x="500" y="875" type="line" smooth="no"/>
      <point x="0" y="875" type="line" smooth="no"/>
    </contour>
    <contour>
      <point x="500" y="750" type="line" smooth="no"/>
      <point x="500" y="500" type="line" smooth="no"/>
      <point x="125" y="500" type="line" smooth="no"/>
      <point x="125" y="750" type="line" smooth="no"/>
    </contour>
    <contour>
      <point x="500" y="375" type="line" smooth="no"/>
      <point x="500" y="125" type="line" smooth="no"/>
      <point x="125" y="125" type="line" smooth="no"/>
      <point x="125" y="375" type="line" smooth="no"/>
    </contour>
  </outline>
</glyph>
<glyph name="D" format="1">
  <advance width="750"/>
  <unicode hex="0044"/>
  <outline>
    <contour>
      <point x="0" y="875" type="line" smooth="no"/>
      <point x="500" y="875" type="line" smooth="no"/>
      <point x="500" y="751" type="line" smooth="no"/>
      <point x="625" y="751" type="line" smooth="no"/>
      <point x="625" y="124" type="line" smooth="no"/>
      <point x="500" y="124" type="line" smooth="no"/>
      <point x="500" y="0" type="line" smooth="no"/>
      <point x="0" y="0" type="line" smooth="no"/>
    </contour>
    <contour>
      <point x="125" y="750" type="line" smooth="no"/>
      <point x="125" y="125" type="line" smooth="no"/>
      <point x="500" y="125" type="line" smooth="no"/>
      <point x="500" y="750" type="line" smooth="no"/>
    </contour>
  </outline>
</glyph>
<glyph name="F" format="1">
  <advance width="750"/>
  <unicode hex="0046"/>
  <outline>
    <contour>
      <point x="0" y="0" type="line" smooth="no"/>
      <point x="125" y="0" type="line" smooth="no"/>
      <point x="125" y="375" type="line" smooth="no"/>
      <point x="500" y="375" type="line" smooth="no"/>
      <point x="500" y="500" type="line" smooth="no"/>
      <point x="125" y="500" type="line" smooth="no"/>
      <point x="125" y="750" type="line" smooth="no"/>
      <point x="625" y="750" type="line" smooth="no"/>
      <point x="625" y="875" type="line" smooth="no"/>
      <point x="626" y="876" type="line" smooth="no"/>
      <point x="0" y="875" type="line" smooth="no"/>
    </contour>
  </outline>
</glyph>
<glyph name="H" format="1">
  <advance width="750"/>
  <unicode hex="0048"/>
  <outline>
    <contour>
      <point x="0" y="0" type="line" smooth="no"/>
      <point x="125" y="0" type="line" smooth="no"/>
      <point x="125" y="375" type="line" smooth="no"/>
      <point x="500" y="375" type="line" smooth="no"/>
      <point x="500" y="0" type="line" smooth="no"/>
      <point x="625" y="0" type="line" smooth="no"/>
      <point x="625" y="875" type="line" smooth="no"/>
      <point x="500" y="875" type="line" smooth="no"/>
      <point x="500" y="500" type="line" smooth="no"/>
      <point x="125" y="500" type="line" smooth="no"/>
      <point x="125" y="875" type="line" smooth="no"/>
      <point x="0" y="875" type="line" smooth="no"/>
    </contour>
  </outline>
</glyph>
<glyph name="I" format="1">
  <advance width="500"/>
  <unicode hex="0049"/>
  <outline>
    <contour>
      <point x="0" y="750" type="line" smooth="no"/>
      <point x="125" y="750" type="line" smooth="no"/>
      <point x="125" y="125" type="line" smooth="no"/>
      <point x="0" y="125" type="line" smooth="no"/>
      <point x="0" y="0" type="line" smooth="no"/>
      <point x="375" y="0" type="line" smooth="no"/>
      <point x="375" y="125" type="line" smooth="no"/>
      <point x="250" y="125" type="line" smooth="no"/>
      <point x="250" y="750" type="line" smooth="no"/>
      <point x="375" y="750" type="line" smooth="no"/>
      <point x="375" y="875" type="line" smooth="no"/>
      <point x="0" y="875" type="line" smooth="no"/>
    </contour>
  </outline>
</glyph>
<glyph name="J" format="1">
  <advance width="750"/>
  <unicode hex="004a"/>
  <outline>
    <contour>
      <point x="500" y="125" type="line" smooth="no"/>
      <point x="125" y="125" type="line" smooth="no"/>
      <point x="125" y="250" type="line" smooth="no"/>
      <point x="0" y="250" type="line" smooth="no"/>
      <point x="0" y="0" type="line" smooth="no"/>
      <point x="625" y="0" type="line" smooth="no"/>
      <point x="625" y="875" type="line" smooth="no"/>
      <point x="500" y="875" type="line" smooth="no"/>
      <point x="500" y="875" type="line" smooth="no"/>
    </contour>
  </outline>
</glyph>
<glyph name="K" format="1">
  <advance width="750"/>
  <unicode hex="004b"/>
  <outline>
    <contour>
      <point x="0" y="0" type="line" smooth="no"/>
      <point x="125" y="0" type="line" smooth="no"/>
      <point x="125" y="375" type="line" smooth="no"/>
      <point x="250" y="375" type="line" smooth="no"/>
      <point x="250" y="250" type="line" smooth="no"/>
      <point x="375" y="250" type="line" smooth="no"/>
      <point x="375" y="125" type="line" smooth="no"/>
      <point x="500" y="125" type="line" smooth="no"/>
      <point x="500" y="0" type="line" smooth="no"/>
      <point x="625" y="0" type="line" smooth="no"/>
      <point x="625" y="125" type="line" smooth="no"/>
      <point x="500" y="125" type="line" smooth="no"/>
      <point x="500" y="250" type="line" smooth="no"/>
      <point x="375" y="250" type="line" smooth="no"/>
      <point x="375" y="375" type="line" smooth="no"/>
      <point x="250" y="375" type="line" smooth="no"/>
      <point x="250" y="500" type="line" smooth="no"/>
      <point x="375" y="500" type="line" smooth="no"/>
      <point x="375" y="625" type="line" smooth="no"/>
      <point x="500" y="625" type="line" smooth="no"/>
      <point x="500" y="750" type="line" smooth="no"/>
      <point x="625" y="750" type="line" smooth="no"/>
      <point x="625" y="875" type="line" smooth="no"/>
      <point x="500" y="875" type="line" smooth="no"/>
      <point x="500" y="750" type="line" smooth="no"/>
      <point x="375" y="750" type="line" smooth="no"/>
      <point x="375" y="625" type="line" smooth="no"/>
      <point x="250" y="625" type="line" smooth="no"/>
      <point x="250" y="500" type="line" smooth="no"/>
      <point x="125" y="500" type="line" smooth="no"/>
      <point x="125" y="875" type="line" smooth="no"/>
      <point x="0" y="875" type="line" smooth="no"/>
    </contour>
  </outline>
</glyph>
<glyph name="M" format="1">
  <advance width="1000"/>
  <unicode hex="004d"/>
  <outline>
    <contour>
      <point x="0" y="0" type="line" smooth="no"/>
      <point x="125" y="0" type="line" smooth="no"/>
      <point x="125" y="625" type="line" smooth="no"/>
      <point x="250" y="625" type="line" smooth="no"/>
      <point x="250" y="500" type="line" smooth="no"/>
      <point x="375" y="500" type="line" smooth="no"/>
      <point x="375" y="375" type="line" smooth="no"/>
      <point x="500" y="375" type="line" smooth="no"/>
      <point x="500" y="500" type="line" smooth="no"/>
      <point x="625" y="500" type="line" smooth="no"/>
      <point x="625" y="625" type="line" smooth="no"/>
      <point x="750" y="625" type="line" smooth="no"/>
      <point x="750" y="0" type="line" smooth="no"/>
      <point x="875" y="0" type="line" smooth="no"/>
      <point x="875" y="875" type="line" smooth="no"/>
      <point x="750" y="875" type="line" smooth="no"/>
      <point x="750" y="750" type="line" smooth="no"/>
      <point x="625" y="750" type="line" smooth="no"/>
      <point x="625" y="625" type="line" smooth="no"/>
      <point x="500" y="625" type="line" smooth="no"/>
      <point x="500" y="500" type="line" smooth="no"/>
      <point x="375" y="500" type="line" smooth="no"/>
      <point x="375" y="625" type="line" smooth="no"/>
      <point x="250" y="625" type="line" smooth="no"/>
      <point x="250" y="750" type="line" smooth="no"/>
      <point x="125" y="750" type="line" smooth="no"/>
      <point x="125" y="875" type="line" smooth="no"/>
      <point x="0" y="875" type="line" smooth="no"/>
    </contour>
  </outline>
</glyph>
<glyph name="N" format="1">
  <advance width="750"/>
  <unicode hex="004e"/>
  <outline>
    <contour>
      <point x="0" y="0" type="line" smooth="no"/>
      <point x="10" y="0" type="line" smooth="no"/>
      <point x="38" y="0" type="line" smooth="no"/>
      <point x="50" y="0" type="line" smooth="no"/>
      <point x="58" y="0" type="line" smooth="no"/>
      <point x="68" y="0" type="line" smooth="no"/>
      <point x="76" y="0" type="line" smooth="no"/>
      <point x="126" y="0" type="line" smooth="no"/>
      <point x="126" y="8" type="line" smooth="no"/>
      <point x="126" y="58" type="line" smooth="no"/>
      <point x="126" y="78" type="line" smooth="no"/>
      <point x="126" y="96" type="line" smooth="no"/>
      <point x="126" y="113" type="line" smooth="no"/>
      <point x="126" y="120" type="line" smooth="no"/>
      <point x="126" y="128" type="line" smooth="no"/>
      <point x="126" y="206" type="line" smooth="no"/>
      <point x="126" y="223" type="line" smooth="no"/>
      <point x="126" y="238" type="line" smooth="no"/>
      <point x="126" y="256" type="line" smooth="no"/>
      <point x="126" y="270" type="line" smooth="no"/>
      <point x="126" y="283" type="line" smooth="no"/>
      <point x="126" y="298" type="line" smooth="no"/>
      <point x="126" y="308" type="line" smooth="no"/>
      <point x="126" y="353" type="line" smooth="no"/>
      <point x="126" y="380" type="line" smooth="no"/>
      <point x="126" y="390" type="line" smooth="no"/>
      <point x="126" y="400" type="line" smooth="no"/>
      <point x="126" y="410" type="line" smooth="no"/>
      <point x="126" y="420" type="line" smooth="no"/>
      <point x="126" y="463" type="line" smooth="no"/>
      <point x="126" y="470" type="line" smooth="no"/>
      <point x="126" y="500" type="line" smooth="no"/>
      <point x="136" y="500" type="line" smooth="no"/>
      <point x="163" y="500" type="line" smooth="no"/>
      <point x="176" y="500" type="line" smooth="no"/>
      <point x="183" y="500" type="line" smooth="no"/>
      <point x="193" y="500" type="line" smooth="no"/>
      <point x="200" y="500" type="line" smooth="no"/>
      <point x="250" y="500" type="line" smooth="no"/>
      <point x="250" y="250" type="line" smooth="no"/>
      <point x="260" y="250" type="line" smooth="no"/>
      <point x="288" y="250" type="line" smooth="no"/>
      <point x="300" y="250" type="line" smooth="no"/>
      <point x="308" y="250" type="line" smooth="no"/>
      <point x="318" y="250" type="line" smooth="no"/>
      <point x="326" y="250" type="line" smooth="no"/>
      <point x="376" y="250" type="line" smooth="no"/>
      <point x="376" y="0" type="line" smooth="no"/>
      <point x="426" y="0" type="line" smooth="no"/>
      <point x="438" y="0" type="line" smooth="no"/>
      <point x="480" y="0" type="line" smooth="no"/>
      <point x="490" y="0" type="line" smooth="no"/>
      <point x="503" y="0" type="line" smooth="no"/>
      <point x="536" y="0" type="line" smooth="no"/>
      <point x="546" y="0" type="line" smooth="no"/>
      <point x="588" y="0" type="line" smooth="no"/>
      <point x="596" y="0" type="line" smooth="no"/>
      <point x="626" y="0" type="line" smooth="no"/>
      <point x="626" y="20" type="line" smooth="no"/>
      <point x="626" y="40" type="line" smooth="no"/>
      <point x="626" y="48" type="line" smooth="no"/>
      <point x="626" y="98" type="line" smooth="no"/>
      <point x="626" y="108" type="line" smooth="no"/>
      <point x="626" y="120" type="line" smooth="no"/>
      <point x="626" y="130" type="line" smooth="no"/>
      <point x="626" y="143" type="line" smooth="no"/>
      <point x="626" y="176" type="line" smooth="no"/>
      <point x="626" y="186" type="line" smooth="no"/>
      <point x="626" y="228" type="line" smooth="no"/>
      <point x="626" y="236" type="line" smooth="no"/>
      <point x="626" y="266" type="line" smooth="no"/>
      <point x="626" y="276" type="line" smooth="no"/>
      <point x="626" y="288" type="line" smooth="no"/>
      <point x="626" y="320" type="line" smooth="no"/>
      <point x="626" y="330" type="line" smooth="no"/>
      <point x="626" y="373" type="line" smooth="no"/>
      <point x="626" y="380" type="line" smooth="no"/>
      <point x="626" y="410" type="line" smooth="no"/>
      <point x="626" y="428" type="line" smooth="no"/>
      <point x="626" y="448" type="line" smooth="no"/>
      <point x="626" y="468" type="line" smooth="no"/>
      <point x="626" y="488" type="line" smooth="no"/>
      <point x="626" y="496" type="line" smooth="no"/>
      <point x="626" y="503" type="line" smooth="no"/>
      <point x="626" y="580" type="line" smooth="no"/>
      <point x="626" y="598" type="line" smooth="no"/>
      <point x="626" y="613" type="line" smooth="no"/>
      <point x="626" y="630" type="line" smooth="no"/>
      <point x="626" y="646" type="line" smooth="no"/>
      <point x="626" y="658" type="line" smooth="no"/>
      <point x="626" y="673" type="line" smooth="no"/>
      <point x="626" y="683" type="line" smooth="no"/>
      <point x="626" y="728" type="line" smooth="no"/>
      <point x="626" y="756" type="line" smooth="no"/>
      <point x="626" y="766" type="line" smooth="no"/>
      <point x="626" y="776" type="line" smooth="no"/>
      <point x="626" y="786" type="line" smooth="no"/>
      <point x="626" y="796" type="line" smooth="no"/>
      <point x="626" y="838" type="line" smooth="no"/>
      <point x="626" y="846" type="line" smooth="no"/>
      <point x="626" y="876" type="line" smooth="no"/>
      <point x="616" y="876" type="line" smooth="no"/>
      <point x="588" y="876" type="line" smooth="no"/>
      <point x="576" y="876" type="line" smooth="no"/>
      <point x="568" y="876" type="line" smooth="no"/>
      <point x="558" y="876" type="line" smooth="no"/>
      <point x="550" y="876" type="line" smooth="no"/>
      <point x="500" y="876" type="line" smooth="no"/>
      <point x="500" y="250" type="line" smooth="no"/>
      <point x="490" y="250" type="line" smooth="no"/>
      <point x="463" y="250" type="line" smooth="no"/>
      <point x="450" y="250" type="line" smooth="no"/>
      <point x="443" y="250" type="line" smooth="no"/>
      <point x="433" y="250" type="line" smooth="no"/>
      <point x="426" y="250" type="line" smooth="no"/>
      <point x="376" y="250" type="line" smooth="no"/>
      <point x="376" y="300" type="line" smooth="no"/>
      <point x="376" y="313" type="line" smooth="no"/>
      <point x="376" y="356" type="line" smooth="no"/>
      <point x="376" y="366" type="line" smooth="no"/>
      <point x="376" y="378" type="line" smooth="no"/>
      <point x="376" y="410" type="line" smooth="no"/>
      <point x="376" y="420" type="line" smooth="no"/>
      <point x="376" y="463" type="line" smooth="no"/>
      <point x="376" y="470" type="line" smooth="no"/>
      <point x="376" y="500" type="line" smooth="no"/>
      <point x="366" y="500" type="line" smooth="no"/>
      <point x="338" y="500" type="line" smooth="no"/>
      <point x="326" y="500" type="line" smooth="no"/>
      <point x="318" y="500" type="line" smooth="no"/>
      <point x="308" y="500" type="line" smooth="no"/>
      <point x="300" y="500" type="line" smooth="no"/>
      <point x="250" y="500" type="line" smooth="no"/>
      <point x="250" y="550" type="line" smooth="no"/>
      <point x="250" y="563" type="line" smooth="no"/>
      <point x="250" y="606" type="line" smooth="no"/>
      <point x="250" y="616" type="line" smooth="no"/>
      <point x="250" y="628" type="line" smooth="no"/>
      <point x="250" y="660" type="line" smooth="no"/>
      <point x="250" y="670" type="line" smooth="no"/>
      <point x="250" y="713" type="line" smooth="no"/>
      <point x="250" y="720" type="line" smooth="no"/>
      <point x="250" y="750" type="line" smooth="no"/>
      <point x="240" y="750" type="line" smooth="no"/>
      <point x="213" y="750" type="line" smooth="no"/>
      <point x="200" y="750" type="line" smooth="no"/>
      <point x="193" y="750" type="line" smooth="no"/>
      <point x="183" y="750" type="line" smooth="no"/>
      <point x="176" y="750" type="line" smooth="no"/>
      <point x="126" y="750" type="line" smooth="no"/>
      <point x="126" y="760" type="line" smooth="no"/>
      <point x="126" y="788" type="line" smooth="no"/>
      <point x="126" y="800" type="line" smooth="no"/>
      <point x="126" y="808" type="line" smooth="no"/>
      <point x="126" y="818" type="line" smooth="no"/>
      <point x="126" y="826" type="line" smooth="no"/>
      <point x="126" y="876" type="line" smooth="no"/>
      <point x="116" y="876" type="line" smooth="no"/>
      <point x="88" y="876" type="line" smooth="no"/>
      <point x="76" y="876" type="line" smooth="no"/>
      <point x="68" y="876" type="line" smooth="no"/>
      <point x="58" y="876" type="line" smooth="no"/>
      <point x="50" y="876" type="line" smooth="no"/>
      <point x="0" y="876" type="line" smooth="no"/>
    </contour>
  </outline>
</glyph>
<glyph name="O" format="1">
  <advance width="750"/>
  <unicode hex="004f"/>
  <outline>
    <contour>
      <point x="125" y="750" type="line" smooth="no"/>
      <point x="0" y="750" type="line" smooth="no"/>
      <point x="0" y="125" type="line" smooth="no"/>
      <point x="125" y="125" type="line" smooth="no"/>
      <point x="125" y="0" type="line" smooth="no"/>
      <point x="500" y="0" type="line" smooth="no"/>
      <point x="500" y="125" type="line" smooth="no"/>
      <point x="625" y="125" type="line" smooth="no"/>
      <point x="625" y="750" type="line" smooth="no"/>
      <point x="500" y="750" type="line" smooth="no"/>
      <point x="500" y="875" type="line" smooth="no"/>
      <point x="125" y="875" type="line" smooth="no"/>
    </contour>
    <contour>
      <point x="500" y="749" type="line" smooth="no"/>
      <point x="500" y="126" type="line" smooth="no"/>
      <point x="125" y="126" type="line" smooth="no"/>
      <point x="125" y="749" type="line" smooth="no"/>
    </contour>
  </outline>
</glyph>
<glyph name="P" format="1">
  <advance width="750"/>
  <unicode hex="0050"/>
  <outline>
    <contour>
      <point x="0" y="0" type="line" smooth="no"/>
      <point x="125" y="0" type="line" smooth="no"/>
      <point x="125" y="375" type="line" smooth="no"/>
      <point x="500" y="375" type="line" smooth="no"/>
      <point x="500" y="499" type="line" smooth="no"/>
      <point x="625" y="499" type="line" smooth="no"/>
      <point x="625" y="751" type="line" smooth="no"/>
      <point x="500" y="751" type="line" smooth="no"/>
      <point x="500" y="875" type="line" smooth="no"/>
      <point x="0" y="875" type="line" smooth="no"/>
    </contour>
    <contour>
      <point x="500" y="750" type="line" smooth="no"/>
      <point x="500" y="500" type="line" smooth="no"/>
      <point x="125" y="500" type="line" smooth="no"/>
      <point x="125" y="750" type="line" smooth="no"/>
    </contour>
  </outline>
</glyph>
<glyph name="R" format="1">
  <advance width="750"/>
  <unicode hex="0052"/>
  <outline>
    <contour>
      <point x="0" y="0" type="line" smooth="no"/>
      <point x="125" y="0" type="line" smooth="no"/>
      <point x="125" y="375" type="line" smooth="no"/>
      <point x="500" y="375" type="line" smooth="no"/>
      <point x="500" y="0" type="line" smooth="no"/>
      <point x="625" y="0" type="line" smooth="no"/>
      <point x="625" y="375" type="line" smooth="no"/>
      <point x="500" y="375" type="line" smooth="no"/>
      <point x="500" y="500" type="line" smooth="no"/>
      <point x="625" y="500" type="line" smooth="no"/>
      <point x="625" y="750" type="line" smooth="no"/>
      <point x="500" y="750" type="line" smooth="no"/>
      <point x="500" y="875" type="line" smooth="no"/>
      <point x="0" y="875" type="line" smooth="no"/>
    </contour>
    <contour>
      <point x="500" y="749" type="line" smooth="no"/>
      <point x="500" y="501" type="line" smooth="no"/>
      <point x="125" y="501" type="line" smooth="no"/>
      <point x="125" y="749" type="line" smooth="no"/>
    </contour>
  </outline>
</glyph>
<glyph name="S" format="1">
  <advance width="750"/>
  <unicode hex="0053"/>
  <outline>
    <contour>
      <point x="125" y="750" type="line" smooth="no"/>
      <point x="0" y="750" type="line" smooth="no"/>
      <point x="0" y="500" type="line" smooth="no"/>
      <point x="125" y="500" type="line" smooth="no"/>
      <point x="125" y="375" type="line" smooth="no"/>
      <point x="500" y="375" type="line" smooth="no"/>
      <point x="500" y="125" type="line" smooth="no"/>
      <point x="0" y="125" type="line" smooth="no"/>
      <point x="0" y="0" type="line" smooth="no"/>
      <point x="500" y="0" type="line" smooth="no"/>
      <point x="500" y="125" type="line" smooth="no"/>
      <point x="625" y="125" type="line" smooth="no"/>
      <point x="625" y="375" type="line" smooth="no"/>
      <point x="500" y="375" type="line" smooth="no"/>
      <point x="500" y="500" type="line" smooth="no"/>
      <point x="125" y="500" type="line" smooth="no"/>
      <point x="125" y="750" type="line" smooth="no"/>
      <point x="500" y="750" type="line" smooth="no"/>
      <point x="500" y="875" type="line" smooth="no"/>
      <point x="125" y="875" type="line" smooth="no"/>
    </contour>
  </outline>
</glyph>
<glyph name="T" format="1">
  <advance width="750"/>
  <unicode hex="0054"/>
  <outline>
    <contour>
      <point x="0" y="750" type="line" smooth="no"/>
      <point x="250" y="750" type="line" smooth="no"/>
      <point x="250" y="0" type="line" smooth="no"/>
      <point x="375" y="0" type="line" smooth="no"/>
      <point x="375" y="750" type="line" smooth="no"/>
      <point x="625" y="750" type="line" smooth="no"/>
      <point x="625" y="875" type="line" smooth="no"/>
      <point x="0" y="875" type="line" smooth="no"/>
    </contour>
  </outline>
</glyph>
<glyph name="U" format="1">
  <advance width="750"/>
  <unicode hex="0055"/>
  <outline>
    <contour>
      <point x="0" y="125" type="line" smooth="no"/>
      <point x="125" y="125" type="line" smooth="no"/>
      <point x="125" y="0" type="line" smooth="no"/>
      <point x="500" y="0" type="line" smooth="no"/>
      <point x="500" y="125" type="line" smooth="no"/>
      <point x="625" y="125" type="line" smooth="no"/>
      <point x="625" y="875" type="line" smooth="no"/>
      <point x="500" y="875" type="line" smooth="no"/>
      <point x="500" y="125" type="line" smooth="no"/>
      <point x="125" y="125" type="line" smooth="no"/>
      <point x="125" y="875" type="line" smooth="no"/>
      <point x="0" y="875" type="line" smooth="no"/>
    </contour>
  </outline>
</glyph>
<glyph name="V" format="1">
  <advance width="750"/>
  <unicode hex="0056"/>
  <outline>
    <contour>
      <point x="0" y="375" type="line" smooth="no"/>
      <point x="125" y="375" type="line" smooth="no"/>
      <point x="125" y="125" type="line" smooth="no"/>
      <point x="250" y="125" type="line" smooth="no"/>
      <point x="250" y="0" type="line" smooth="no"/>
      <point x="375" y="0" type="line" smooth="no"/>
      <point x="375" y="125" type="line" smooth="no"/>
      <point x="500" y="125" type="line" smooth="no"/>
      <point x="500" y="375" type="line" smooth="no"/>
      <point x="625" y="375" type="line" smooth="no"/>
      <point x="625" y="875" type="line" smooth="no"/>
      <point x="500" y="875" type="line" smooth="no"/>
      <point x="500" y="375" type="line" smooth="no"/>
      <point x="375" y="375" type="line" smooth="no"/>
      <point x="375" y="125" type="line" smooth="no"/>
      <point x="250" y="125" type="line" smooth="no"/>
      <point x="250" y="375" type="line" smooth="no"/>
      <point x="125" y="375" type="line" smooth="no"/>
      <point x="125" y="875" type="line" smooth="no"/>
      <point x="0" y="875" type="line" smooth="no"/>
    </contour>
  </outline>
</glyph>
<glyph name="W" format="1">
  <advance width="1000"/>
  <unicode hex="0057"/>
  <outline>
    <contour>
      <point x="0" y="0" type="line" smooth="no"/>
      <point x="125" y="0" type="line" smooth="no"/>
      <point x="125" y="125" type="line" smooth="no"/>
      <point x="250" y="125" type="line" smooth="no"/>
      <point x="250" y="250" type="line" smooth="no"/>
      <point x="375" y="250" type="line" smooth="no"/>
      <point x="375" y="375" type="line" smooth="no"/>
      <point x="500" y="375" type="line" smooth="no"/>
      <point x="500" y="250" type="line" smooth="no"/>
      <point x="625" y="250" type="line" smooth="no"/>
      <point x="625" y="125" type="line" smooth="no"/>
      <point x="750" y="125" type="line" smooth="no"/>
      <point x="750" y="0" type="line" smooth="no"/>
      <point x="875" y="0" type="line" smooth="no"/>
      <point x="875" y="875" type="line" smooth="no"/>
      <point x="750" y="875" type="line" smooth="no"/>
      <point x="750" y="250" type="line" smooth="no"/>
      <point x="625" y="250" type="line" smooth="no"/>
      <point x="625" y="375" type="line" smooth="no"/>
      <point x="500" y="375" type="line" smooth="no"/>
      <point x="500" y="500" type="line" smooth="no"/>
      <point x="375" y="500" type="line" smooth="no"/>
      <point x="375" y="375" type="line" smooth="no"/>
      <point x="250" y="375" type="line" smooth="no"/>
      <point x="250" y="250" type="line" smooth="no"/>
      <point x="125" y="250" type="line" smooth="no"/>
      <point x="125" y="875" type="line" smooth="no"/>
      <point x="0" y="875" type="line" smooth="no"/>
    </contour>
  </outline>
</glyph>
<glyph name="X" format="1">
  <advance width="750"/>
  <unicode hex="0058"/>
  <outline>
    <contour>
      <point x="0" y="626" type="line" smooth="no"/>
      <point x="10" y="626" type="line" smooth="no"/>
      <point x="38" y="626" type="line" smooth="no"/>
      <point x="50" y="626" type="line" smooth="no"/>
      <point x="58" y="626" type="line" smooth="no"/>
      <point x="68" y="626" type="line" smooth="no"/>
      <point x="76" y="626" type="line" smooth="no"/>
      <point x="126" y="626" type="line" smooth="no"/>
      <point x="126" y="500" type="line" smooth="no"/>
      <point x="136" y="500" type="line" smooth="no"/>
      <point x="163" y="500" type="line" smooth="no"/>
      <point x="176" y="500" type="line" smooth="no"/>
      <point x="183" y="500" type="line" smooth="no"/>
      <point x="193" y="500" type="line" smooth="no"/>
      <point x="200" y="500" type="line" smooth="no"/>
      <point x="250" y="500" type="line" smooth="no"/>
      <point x="250" y="376" type="line" smooth="no"/>
      <point x="240" y="376" type="line" smooth="no"/>
      <point x="213" y="376" type="line" smooth="no"/>
      <point x="200" y="376" type="line" smooth="no"/>
      <point x="193" y="376" type="line" smooth="no"/>
      <point x="183" y="376" type="line" smooth="no"/>
      <point x="176" y="376" type="line" smooth="no"/>
      <point x="126" y="376" type="line" smooth="no"/>
      <point x="126" y="250" type="line" smooth="no"/>
      <point x="116" y="250" type="line" smooth="no"/>
      <point x="88" y="250" type="line" smooth="no"/>
      <point x="76" y="250" type="line" smooth="no"/>
      <point x="68" y="250" type="line" smooth="no"/>
      <point x="58" y="250" type="line" smooth="no"/>
      <point x="50" y="250" type="line" smooth="no"/>
      <point x="0" y="250" type="line" smooth="no"/>
      <point x="0" y="0" type="line" smooth="no"/>
      <point x="10" y="0" type="line" smooth="no"/>
      <point x="38" y="0" type="line" smooth="no"/>
      <point x="50" y="0" type="line" smooth="no"/>
      <point x="58" y="0" type="line" smooth="no"/>
      <point x="68" y="0" type="line" smooth="no"/>
      <point x="76" y="0" type="line" smooth="no"/>
      <point x="126" y="0" type="line" smooth="no"/>
      <point x="126" y="50" type="line" smooth="no"/>
      <point x="126" y="63" type="line" smooth="no"/>
      <point x="126" y="106" type="line" smooth="no"/>
      <point x="126" y="116" type="line" smooth="no"/>
      <point x="126" y="128" type="line" smooth="no"/>
      <point x="126" y="160" type="line" smooth="no"/>
      <point x="126" y="170" type="line" smooth="no"/>
      <point x="126" y="213" type="line" smooth="no"/>
      <point x="126" y="220" type="line" smooth="no"/>
      <point x="126" y="250" type="line" smooth="no"/>
      <point x="136" y="250" type="line" smooth="no"/>
      <point x="163" y="250" type="line" smooth="no"/>
      <point x="176" y="250" type="line" smooth="no"/>
      <point x="183" y="250" type="line" smooth="no"/>
      <point x="193" y="250" type="line" smooth="no"/>
      <point x="200" y="250" type="line" smooth="no"/>
      <point x="250" y="250" type="line" smooth="no"/>
      <point x="250" y="260" type="line" smooth="no"/>
      <point x="250" y="288" type="line" smooth="no"/>
      <point x="250" y="300" type="line" smooth="no"/>
      <point x="250" y="308" type="line" smooth="no"/>
      <point x="250" y="318" type="line" smooth="no"/>
      <point x="250" y="326" type="line" smooth="no"/>
      <point x="250" y="376" type="line" smooth="no"/>
      <point x="260" y="376" type="line" smooth="no"/>
      <point x="288" y="376" type="line" smooth="no"/>
      <point x="300" y="376" type="line" smooth="no"/>
      <point x="308" y="376" type="line" smooth="no"/>
      <point x="318" y="376" type="line" smooth="no"/>
      <point x="326" y="376" type="line" smooth="no"/>
      <point x="376" y="376" type="line" smooth="no"/>
      <point x="376" y="250" type="line" smooth="no"/>
      <point x="386" y="250" type="line" smooth="no"/>
      <point x="413" y="250" type="line" smooth="no"/>
      <point x="426" y="250" type="line" smooth="no"/>
      <point x="433" y="250" type="line" smooth="no"/>
      <point x="443" y="250" type="line" smooth="no"/>
      <point x="450" y="250" type="line" smooth="no"/>
      <point x="500" y="250" type="line" smooth="no"/>
      <point x="500" y="0" type="line" smooth="no"/>
      <point x="510" y="0" type="line" smooth="no"/>
      <point x="520" y="0" type="line" smooth="no"/>
      <point x="530" y="0" type="line" smooth="no"/>
      <point x="540" y="0" type="line" smooth="no"/>
      <point x="583" y="0" type="line" smooth="no"/>
      <point x="590" y="0" type="line" smooth="no"/>
      <point x="620" y="0" type="line" smooth="no"/>
      <point x="625" y="6"/>
      <point x="626" y="13" type="qcurve" smooth="no"/>
      <point x="626" y="56" type="line" smooth="no"/>
      <point x="626" y="66" type="line" smooth="no"/>
      <point x="626" y="76" type="line" smooth="no"/>
      <point x="626" y="83" type="line" smooth="no"/>
      <point x="626" y="128" type="line" smooth="no"/>
      <point x="626" y="160" type="line" smooth="no"/>
      <point x="626" y="170" type="line" smooth="no"/>
      <point x="626" y="213" type="line" smooth="no"/>
      <point x="626" y="220" type="line" smooth="no"/>
      <point x="626" y="250" type="line" smooth="no"/>
      <point x="616" y="250" type="line" smooth="no"/>
      <point x="588" y="250" type="line" smooth="no"/>
      <point x="576" y="250" type="line" smooth="no"/>
      <point x="568" y="250" type="line" smooth="no"/>
      <point x="558" y="250" type="line" smooth="no"/>
      <point x="550" y="250" type="line" smooth="no"/>
      <point x="500" y="250" type="line" smooth="no"/>
      <point x="500" y="260" type="line" smooth="no"/>
      <point x="500" y="288" type="line" smooth="no"/>
      <point x="500" y="300" type="line" smooth="no"/>
      <point x="500" y="308" type="line" smooth="no"/>
      <point x="500" y="318" type="line" smooth="no"/>
      <point x="500" y="326" type="line" smooth="no"/>
      <point x="500" y="376" type="line" smooth="no"/>
      <point x="490" y="376" type="line" smooth="no"/>
      <point x="463" y="376" type="line" smooth="no"/>
      <point x="450" y="376" type="line" smooth="no"/>
      <point x="443" y="376" type="line" smooth="no"/>
      <point x="433" y="376" type="line" smooth="no"/>
      <point x="426" y="376" type="line" smooth="no"/>
      <point x="376" y="376" type="line" smooth="no"/>
      <point x="376" y="386" type="line" smooth="no"/>
      <point x="376" y="413" type="line" smooth="no"/>
      <point x="376" y="426" type="line" smooth="no"/>
      <point x="376" y="433" type="line" smooth="no"/>
      <point x="376" y="443" type="line" smooth="no"/>
      <point x="376" y="450" type="line" smooth="no"/>
      <point x="376" y="500" type="line" smooth="no"/>
      <point x="386" y="500" type="line" smooth="no"/>
      <point x="413" y="500" type="line" smooth="no"/>
      <point x="426" y="500" type="line" smooth="no"/>
      <point x="433" y="500" type="line" smooth="no"/>
      <point x="443" y="500" type="line" smooth="no"/>
      <point x="450" y="500" type="line" smooth="no"/>
      <point x="500" y="500" type="line" smooth="no"/>
      <point x="500" y="510" type="line" smooth="no"/>
      <point x="500" y="538" type="line" smooth="no"/>
      <point x="500" y="550" type="line" smooth="no"/>
      <point x="500" y="558" type="line" smooth="no"/>
      <point x="500" y="568" type="line" smooth="no"/>
      <point x="500" y="576" type="line" smooth="no"/>
      <point x="500" y="626" type="line" smooth="no"/>
      <point x="510" y="626" type="line" smooth="no"/>
      <point x="538" y="626" type="line" smooth="no"/>
      <point x="550" y="626" type="line" smooth="no"/>
      <point x="558" y="626" type="line" smooth="no"/>
      <point x="568" y="626" type="line" smooth="no"/>
      <point x="576" y="626" type="line" smooth="no"/>
      <point x="626" y="626" type="line" smooth="no"/>
      <point x="626" y="676" type="line" smooth="no"/>
      <point x="626" y="688" type="line" smooth="no"/>
      <point x="626" y="730" type="line" smooth="no"/>
      <point x="626" y="740" type="line" smooth="no"/>
      <point x="626" y="753" type="line" smooth="no"/>
      <point x="626" y="786" type="line" smooth="no"/>
      <point x="626" y="796" type="line" smooth="no"/>
      <point x="626" y="838" type="line" smooth="no"/>
      <point x="626" y="846" type="line" smooth="no"/>
      <point x="626" y="876" type="line" smooth="no"/>
      <point x="616" y="876" type="line" smooth="no"/>
      <point x="588" y="876" type="line" smooth="no"/>
      <point x="576" y="876" type="line" smooth="no"/>
      <point x="568" y="876" type="line" smooth="no"/>
      <point x="558" y="876" type="line" smooth="no"/>
      <point x="550" y="876" type="line" smooth="no"/>
      <point x="500" y="876" type="line" smooth="no"/>
      <point x="500" y="626" type="line" smooth="no"/>
      <point x="490" y="626" type="line" smooth="no"/>
      <point x="463" y="626" type="line" smooth="no"/>
      <point x="450" y="626" type="line" smooth="no"/>
      <point x="443" y="626" type="line" smooth="no"/>
      <point x="433" y="626" type="line" smooth="no"/>
      <point x="426" y="626" type="line" smooth="no"/>
      <point x="376" y="626" type="line" smooth="no"/>
      <point x="376" y="500" type="line" smooth="no"/>
      <point x="350" y="500" type="line" smooth="no"/>
      <point x="340" y="500" type="line" smooth="no"/>
      <point x="330" y="500" type="line" smooth="no"/>
      <point x="323" y="500" type="line" smooth="no"/>
      <point x="313" y="500" type="line" smooth="no"/>
      <point x="268" y="500" type="line" smooth="no"/>
      <point x="250" y="500" type="line" smooth="no"/>
      <point x="250" y="510" type="line" smooth="no"/>
      <point x="250" y="538" type="line" smooth="no"/>
      <point x="250" y="550" type="line" smooth="no"/>
      <point x="250" y="558" type="line" smooth="no"/>
      <point x="250" y="568" type="line" smooth="no"/>
      <point x="250" y="576" type="line" smooth="no"/>
      <point x="250" y="626" type="line" smooth="no"/>
      <point x="240" y="626" type="line" smooth="no"/>
      <point x="213" y="626" type="line" smooth="no"/>
      <point x="200" y="626" type="line" smooth="no"/>
      <point x="193" y="626" type="line" smooth="no"/>
      <point x="183" y="626" type="line" smooth="no"/>
      <point x="176" y="626" type="line" smooth="no"/>
      <point x="126" y="626" type="line" smooth="no"/>
      <point x="126" y="676" type="line" smooth="no"/>
      <point x="126" y="688" type="line" smooth="no"/>
      <point x="126" y="730" type="line" smooth="no"/>
      <point x="126" y="740" type="line" smooth="no"/>
      <point x="126" y="753" type="line" smooth="no"/>
      <point x="126" y="786" type="line" smooth="no"/>
      <point x="126" y="796" type="line" smooth="no"/>
      <point x="126" y="838" type="line" smooth="no"/>
      <point x="126" y="846" type="line" smooth="no"/>
      <point x="126" y="876" type="line" smooth="no"/>
      <point x="116" y="876" type="line" smooth="no"/>
      <point x="88" y="876" type="line" smooth="no"/>
      <point x="76" y="876" type="line" smooth="no"/>
      <point x="68" y="876" type="line" smooth="no"/>
      <point x="58" y="876" type="line" smooth="no"/>
      <point x="50" y="876" type="line" smooth="no"/>
      <point x="0" y="876" type="line" smooth="no"/>
    </contour>
  </outline>
</glyph>
<glyph name="Y" format="1">
  <advance width="750"/>
  <unicode hex="0059"/>
  <outline>
    <contour>
      <point x="0" y="502" type="line" smooth="no"/>
      <point x="10" y="502" type="line" smooth="no"/>
      <point x="38" y="502" type="line" smooth="no"/>
      <point x="50" y="502" type="line" smooth="no"/>
      <point x="58" y="502" type="line" smooth="no"/>
      <point x="68" y="502" type="line" smooth="no"/>
      <point x="76" y="502" type="line" smooth="no"/>
      <point x="126" y="502" type="line" smooth="no"/>
      <point x="126" y="377" type="line" smooth="no"/>
      <point x="136" y="377" type="line" smooth="no"/>
      <point x="163" y="377" type="line" smooth="no"/>
      <point x="176" y="377" type="line" smooth="no"/>
      <point x="183" y="377" type="line" smooth="no"/>
      <point x="193" y="377" type="line" smooth="no"/>
      <point x="200" y="377" type="line" smooth="no"/>
      <point x="250" y="377" type="line" smooth="no"/>
      <point x="250" y="2" type="line" smooth="no"/>
      <point x="260" y="2" type="line" smooth="no"/>
      <point x="270" y="2" type="line" smooth="no"/>
      <point x="280" y="2" type="line" smooth="no"/>
      <point x="323" y="2" type="line" smooth="no"/>
      <point x="343" y="2" type="line" smooth="no"/>
      <point x="360" y="2" type="line" smooth="no"/>
      <point x="372" y="0"/>
      <point x="376" y="10" type="qcurve" smooth="no"/>
      <point x="376" y="25" type="line" smooth="no"/>
      <point x="376" y="42" type="line" smooth="no"/>
      <point x="376" y="57" type="line" smooth="no"/>
      <point x="376" y="75" type="line" smooth="no"/>
      <point x="376" y="90" type="line" smooth="no"/>
      <point x="376" y="132" type="line" smooth="no"/>
      <point x="376" y="147" type="line" smooth="no"/>
      <point x="376" y="160" type="line" smooth="no"/>
      <point x="376" y="175" type="line" smooth="no"/>
      <point x="376" y="185" type="line" smooth="no"/>
      <point x="376" y="230" type="line" smooth="no"/>
      <point x="376" y="257" type="line" smooth="no"/>
      <point x="376" y="267" type="line" smooth="no"/>
      <point x="376" y="277" type="line" smooth="no"/>
      <point x="376" y="287" type="line" smooth="no"/>
      <point x="376" y="297" type="line" smooth="no"/>
      <point x="376" y="340" type="line" smooth="no"/>
      <point x="376" y="347" type="line" smooth="no"/>
      <point x="376" y="377" type="line" smooth="no"/>
      <point x="386" y="377" type="line" smooth="no"/>
      <point x="413" y="377" type="line" smooth="no"/>
      <point x="426" y="377" type="line" smooth="no"/>
      <point x="433" y="377" type="line" smooth="no"/>
      <point x="443" y="377" type="line" smooth="no"/>
      <point x="450" y="377" type="line" smooth="no"/>
      <point x="500" y="377" type="line" smooth="no"/>
      <point x="500" y="387" type="line" smooth="no"/>
      <point x="500" y="415" type="line" smooth="no"/>
      <point x="500" y="427" type="line" smooth="no"/>
      <point x="500" y="435" type="line" smooth="no"/>
      <point x="500" y="445" type="line" smooth="no"/>
      <point x="500" y="452" type="line" smooth="no"/>
      <point x="500" y="502" type="line" smooth="no"/>
      <point x="510" y="502" type="line" smooth="no"/>
      <point x="538" y="502" type="line" smooth="no"/>
      <point x="550" y="502" type="line" smooth="no"/>
      <point x="558" y="502" type="line" smooth="no"/>
      <point x="568" y="502" type="line" smooth="no"/>
      <point x="576" y="502" type="line" smooth="no"/>
      <point x="626" y="502" type="line" smooth="no"/>
      <point x="626" y="520" type="line" smooth="no"/>
      <point x="626" y="537" type="line" smooth="no"/>
      <point x="626" y="547" type="line" smooth="no"/>
      <point x="626" y="560" type="line" smooth="no"/>
      <point x="626" y="592" type="line" smooth="no"/>
      <point x="626" y="602" type="line" smooth="no"/>
      <point x="626" y="644" type="line" smooth="no"/>
      <point x="626" y="652" type="line" smooth="no"/>
      <point x="626" y="682" type="line" smooth="no"/>
      <point x="626" y="692" type="line" smooth="no"/>
      <point x="626" y="702" type="line" smooth="no"/>
      <point x="626" y="709" type="line" smooth="no"/>
      <point x="626" y="754" type="line" smooth="no"/>
      <point x="626" y="787" type="line" smooth="no"/>
      <point x="626" y="797" type="line" smooth="no"/>
      <point x="626" y="839" type="line" smooth="no"/>
      <point x="626" y="847" type="line" smooth="no"/>
      <point x="626" y="877" type="line" smooth="no"/>
      <point x="616" y="877" type="line" smooth="no"/>
      <point x="588" y="877" type="line" smooth="no"/>
      <point x="576" y="877" type="line" smooth="no"/>
      <point x="568" y="877" type="line" smooth="no"/>
      <point x="558" y="877" type="line" smooth="no"/>
      <point x="550" y="877" type="line" smooth="no"/>
      <point x="500" y="877" type="line" smooth="no"/>
      <point x="500" y="502" type="line" smooth="no"/>
      <point x="483" y="502" type="line" smooth="no"/>
      <point x="466" y="502" type="line" smooth="no"/>
      <point x="456" y="502" type="line" smooth="no"/>
      <point x="443" y="502" type="line" smooth="no"/>
      <point x="410" y="502" type="line" smooth="no"/>
      <point x="400" y="502" type="line" smooth="no"/>
      <point x="358" y="502" type="line" smooth="no"/>
      <point x="350" y="502" type="line" smooth="no"/>
      <point x="320" y="502" type="line" smooth="no"/>
      <point x="310" y="502" type="line" smooth="no"/>
      <point x="300" y="502" type="line" smooth="no"/>
      <point x="293" y="502" type="line" smooth="no"/>
      <point x="248" y="502" type="line" smooth="no"/>
      <point x="216" y="502" type="line" smooth="no"/>
      <point x="206" y="502" type="line" smooth="no"/>
      <point x="163" y="502" type="line" smooth="no"/>
      <point x="156" y="502" type="line" smooth="no"/>
      <point x="126" y="502" type="line" smooth="no"/>
      <point x="126" y="520" type="line" smooth="no"/>
      <point x="126" y="537" type="line" smooth="no"/>
      <point x="126" y="547" type="line" smooth="no"/>
      <point x="126" y="560" type="line" smooth="no"/>
      <point x="126" y="592" type="line" smooth="no"/>
      <point x="126" y="602" type="line" smooth="no"/>
      <point x="126" y="644" type="line" smooth="no"/>
      <point x="126" y="652" type="line" smooth="no"/>
      <point x="126" y="682" type="line" smooth="no"/>
      <point x="126" y="692" type="line" smooth="no"/>
      <point x="126" y="702" type="line" smooth="no"/>
      <point x="126" y="709" type="line" smooth="no"/>
      <point x="126" y="754" type="line" smooth="no"/>
      <point x="126" y="787" type="line" smooth="no"/>
      <point x="126" y="797" type="line" smooth="no"/>
      <point x="126" y="839" type="line" smooth="no"/>
      <point x="126" y="847" type="line" smooth="no"/>
      <point x="126" y="877" type="line" smooth="no"/>
      <point x="116" y="877" type="line" smooth="no"/>
      <point x="88" y="877" type="line" smooth="no"/>
      <point x="76" y="877" type="line" smooth="no"/>
      <point x="68" y="877" type="line" smooth="no"/>
      <point x="58" y="877" type="line" smooth="no"/>
      <point x="50" y="877" type="line" smooth="no"/>
      <point x="0" y="877" type="line" smooth="no"/>
    </contour>
  </outline>
</glyph>
